<?xml version="1.0" encoding="utf-8" standalone="no"?>
<!DOCTYPE svg PUBLIC "-//W3C//DTD SVG 1.1//EN"
  "http://www.w3.org/Graphics/SVG/1.1/DTD/svg11.dtd">
<svg xmlns:xlink="http://www.w3.org/1999/xlink" width="432pt" height="432pt" viewBox="0 0 432 432" xmlns="http://www.w3.org/2000/svg" version="1.1">
 <metadata>
  <rdf:RDF xmlns:dc="http://purl.org/dc/elements/1.1/" xmlns:cc="http://creativecommons.org/ns#" xmlns:rdf="http://www.w3.org/1999/02/22-rdf-syntax-ns#">
   <cc:Work>
    <dc:type rdf:resource="http://purl.org/dc/dcmitype/StillImage"/>
    <dc:date>2025-08-29T21:43:05.497435</dc:date>
    <dc:format>image/svg+xml</dc:format>
    <dc:creator>
     <cc:Agent>
      <dc:title>Matplotlib v3.10.3, https://matplotlib.org/</dc:title>
     </cc:Agent>
    </dc:creator>
   </cc:Work>
  </rdf:RDF>
 </metadata>
 <defs>
  <style type="text/css">*{stroke-linejoin: round; stroke-linecap: butt}</style>
 </defs>
 <g id="figure_1">
  <g id="patch_1">
   <path d="M 0 432 
L 432 432 
L 432 0 
L 0 0 
z
" style="fill: #ffffff"/>
  </g>
  <g id="axes_1">
   <g id="patch_2">
    <path d="M 54 384.48 
L 388.8 384.48 
L 388.8 51.84 
L 54 51.84 
z
" style="fill: #ffffff"/>
   </g>
   <g id="matplotlib.axis_1">
    <g id="xtick_1">
     <g id="line2d_1">
      <path d="M 69.218182 384.48 
L 69.218182 51.84 
" clip-path="url(#pcaa68eccca)" style="fill: none; stroke: #cccccc; stroke-width: 1.5; stroke-linecap: round"/>
     </g>
     <g id="text_1">
      <!-- 1995 -->
      <g style="fill: #262626" transform="translate(60.320682 402.70625) scale(0.08 -0.08)">
       <defs>
        <path id="ArialMT-31" d="M 2384 0 
L 1822 0 
L 1822 3584 
Q 1619 3391 1289 3197 
Q 959 3003 697 2906 
L 697 3450 
Q 1169 3672 1522 3987 
Q 1875 4303 2022 4600 
L 2384 4600 
L 2384 0 
z
" transform="scale(0.015625)"/>
        <path id="ArialMT-39" d="M 350 1059 
L 891 1109 
Q 959 728 1153 556 
Q 1347 384 1650 384 
Q 1909 384 2104 503 
Q 2300 622 2425 820 
Q 2550 1019 2634 1356 
Q 2719 1694 2719 2044 
Q 2719 2081 2716 2156 
Q 2547 1888 2255 1720 
Q 1963 1553 1622 1553 
Q 1053 1553 659 1965 
Q 266 2378 266 3053 
Q 266 3750 677 4175 
Q 1088 4600 1706 4600 
Q 2153 4600 2523 4359 
Q 2894 4119 3086 3673 
Q 3278 3228 3278 2384 
Q 3278 1506 3087 986 
Q 2897 466 2520 194 
Q 2144 -78 1638 -78 
Q 1100 -78 759 220 
Q 419 519 350 1059 
z
M 2653 3081 
Q 2653 3566 2395 3850 
Q 2138 4134 1775 4134 
Q 1400 4134 1122 3828 
Q 844 3522 844 3034 
Q 844 2597 1108 2323 
Q 1372 2050 1759 2050 
Q 2150 2050 2401 2323 
Q 2653 2597 2653 3081 
z
" transform="scale(0.015625)"/>
        <path id="ArialMT-35" d="M 266 1200 
L 856 1250 
Q 922 819 1161 601 
Q 1400 384 1738 384 
Q 2144 384 2425 690 
Q 2706 997 2706 1503 
Q 2706 1984 2436 2262 
Q 2166 2541 1728 2541 
Q 1456 2541 1237 2417 
Q 1019 2294 894 2097 
L 366 2166 
L 809 4519 
L 3088 4519 
L 3088 3981 
L 1259 3981 
L 1013 2750 
Q 1425 3038 1878 3038 
Q 2478 3038 2890 2622 
Q 3303 2206 3303 1553 
Q 3303 931 2941 478 
Q 2500 -78 1738 -78 
Q 1113 -78 717 272 
Q 322 622 266 1200 
z
" transform="scale(0.015625)"/>
       </defs>
       <use xlink:href="#ArialMT-31"/>
       <use xlink:href="#ArialMT-39" transform="translate(55.615234 0)"/>
       <use xlink:href="#ArialMT-39" transform="translate(111.230469 0)"/>
       <use xlink:href="#ArialMT-35" transform="translate(166.845703 0)"/>
      </g>
     </g>
    </g>
    <g id="xtick_2">
     <g id="line2d_2">
      <path d="M 125.581818 384.48 
L 125.581818 51.84 
" clip-path="url(#pcaa68eccca)" style="fill: none; stroke: #cccccc; stroke-width: 1.5; stroke-linecap: round"/>
     </g>
     <g id="text_2">
      <!-- 2000 -->
      <g style="fill: #262626" transform="translate(116.684318 402.70625) scale(0.08 -0.08)">
       <defs>
        <path id="ArialMT-32" d="M 3222 541 
L 3222 0 
L 194 0 
Q 188 203 259 391 
Q 375 700 629 1000 
Q 884 1300 1366 1694 
Q 2113 2306 2375 2664 
Q 2638 3022 2638 3341 
Q 2638 3675 2398 3904 
Q 2159 4134 1775 4134 
Q 1369 4134 1125 3890 
Q 881 3647 878 3216 
L 300 3275 
Q 359 3922 746 4261 
Q 1134 4600 1788 4600 
Q 2447 4600 2831 4234 
Q 3216 3869 3216 3328 
Q 3216 3053 3103 2787 
Q 2991 2522 2730 2228 
Q 2469 1934 1863 1422 
Q 1356 997 1212 845 
Q 1069 694 975 541 
L 3222 541 
z
" transform="scale(0.015625)"/>
        <path id="ArialMT-30" d="M 266 2259 
Q 266 3072 433 3567 
Q 600 4063 929 4331 
Q 1259 4600 1759 4600 
Q 2128 4600 2406 4451 
Q 2684 4303 2865 4023 
Q 3047 3744 3150 3342 
Q 3253 2941 3253 2259 
Q 3253 1453 3087 958 
Q 2922 463 2592 192 
Q 2263 -78 1759 -78 
Q 1097 -78 719 397 
Q 266 969 266 2259 
z
M 844 2259 
Q 844 1131 1108 757 
Q 1372 384 1759 384 
Q 2147 384 2411 759 
Q 2675 1134 2675 2259 
Q 2675 3391 2411 3762 
Q 2147 4134 1753 4134 
Q 1366 4134 1134 3806 
Q 844 3388 844 2259 
z
" transform="scale(0.015625)"/>
       </defs>
       <use xlink:href="#ArialMT-32"/>
       <use xlink:href="#ArialMT-30" transform="translate(55.615234 0)"/>
       <use xlink:href="#ArialMT-30" transform="translate(111.230469 0)"/>
       <use xlink:href="#ArialMT-30" transform="translate(166.845703 0)"/>
      </g>
     </g>
    </g>
    <g id="xtick_3">
     <g id="line2d_3">
      <path d="M 181.945455 384.48 
L 181.945455 51.84 
" clip-path="url(#pcaa68eccca)" style="fill: none; stroke: #cccccc; stroke-width: 1.5; stroke-linecap: round"/>
     </g>
     <g id="text_3">
      <!-- 2005 -->
      <g style="fill: #262626" transform="translate(173.047955 402.70625) scale(0.08 -0.08)">
       <use xlink:href="#ArialMT-32"/>
       <use xlink:href="#ArialMT-30" transform="translate(55.615234 0)"/>
       <use xlink:href="#ArialMT-30" transform="translate(111.230469 0)"/>
       <use xlink:href="#ArialMT-35" transform="translate(166.845703 0)"/>
      </g>
     </g>
    </g>
    <g id="xtick_4">
     <g id="line2d_4">
      <path d="M 238.309091 384.48 
L 238.309091 51.84 
" clip-path="url(#pcaa68eccca)" style="fill: none; stroke: #cccccc; stroke-width: 1.5; stroke-linecap: round"/>
     </g>
     <g id="text_4">
      <!-- 2010 -->
      <g style="fill: #262626" transform="translate(229.411591 402.70625) scale(0.08 -0.08)">
       <use xlink:href="#ArialMT-32"/>
       <use xlink:href="#ArialMT-30" transform="translate(55.615234 0)"/>
       <use xlink:href="#ArialMT-31" transform="translate(111.230469 0)"/>
       <use xlink:href="#ArialMT-30" transform="translate(166.845703 0)"/>
      </g>
     </g>
    </g>
    <g id="xtick_5">
     <g id="line2d_5">
      <path d="M 294.672727 384.48 
L 294.672727 51.84 
" clip-path="url(#pcaa68eccca)" style="fill: none; stroke: #cccccc; stroke-width: 1.5; stroke-linecap: round"/>
     </g>
     <g id="text_5">
      <!-- 2015 -->
      <g style="fill: #262626" transform="translate(285.775227 402.70625) scale(0.08 -0.08)">
       <use xlink:href="#ArialMT-32"/>
       <use xlink:href="#ArialMT-30" transform="translate(55.615234 0)"/>
       <use xlink:href="#ArialMT-31" transform="translate(111.230469 0)"/>
       <use xlink:href="#ArialMT-35" transform="translate(166.845703 0)"/>
      </g>
     </g>
    </g>
    <g id="xtick_6">
     <g id="line2d_6">
      <path d="M 351.036364 384.48 
L 351.036364 51.84 
" clip-path="url(#pcaa68eccca)" style="fill: none; stroke: #cccccc; stroke-width: 1.5; stroke-linecap: round"/>
     </g>
     <g id="text_6">
      <!-- 2020 -->
      <g style="fill: #262626" transform="translate(342.138864 402.70625) scale(0.08 -0.08)">
       <use xlink:href="#ArialMT-32"/>
       <use xlink:href="#ArialMT-30" transform="translate(55.615234 0)"/>
       <use xlink:href="#ArialMT-32" transform="translate(111.230469 0)"/>
       <use xlink:href="#ArialMT-30" transform="translate(166.845703 0)"/>
      </g>
     </g>
    </g>
    <g id="text_7">
     <!-- Anno -->
     <g style="fill: #262626" transform="translate(205.052813 418.317187) scale(0.14 -0.14)">
      <defs>
       <path id="ArialMT-41" d="M -9 0 
L 1750 4581 
L 2403 4581 
L 4278 0 
L 3588 0 
L 3053 1388 
L 1138 1388 
L 634 0 
L -9 0 
z
M 1313 1881 
L 2866 1881 
L 2388 3150 
Q 2169 3728 2063 4100 
Q 1975 3659 1816 3225 
L 1313 1881 
z
" transform="scale(0.015625)"/>
       <path id="ArialMT-6e" d="M 422 0 
L 422 3319 
L 928 3319 
L 928 2847 
Q 1294 3394 1984 3394 
Q 2284 3394 2536 3286 
Q 2788 3178 2913 3003 
Q 3038 2828 3088 2588 
Q 3119 2431 3119 2041 
L 3119 0 
L 2556 0 
L 2556 2019 
Q 2556 2363 2490 2533 
Q 2425 2703 2258 2804 
Q 2091 2906 1866 2906 
Q 1506 2906 1245 2678 
Q 984 2450 984 1813 
L 984 0 
L 422 0 
z
" transform="scale(0.015625)"/>
       <path id="ArialMT-6f" d="M 213 1659 
Q 213 2581 725 3025 
Q 1153 3394 1769 3394 
Q 2453 3394 2887 2945 
Q 3322 2497 3322 1706 
Q 3322 1066 3130 698 
Q 2938 331 2570 128 
Q 2203 -75 1769 -75 
Q 1072 -75 642 372 
Q 213 819 213 1659 
z
M 791 1659 
Q 791 1022 1069 705 
Q 1347 388 1769 388 
Q 2188 388 2466 706 
Q 2744 1025 2744 1678 
Q 2744 2294 2464 2611 
Q 2184 2928 1769 2928 
Q 1347 2928 1069 2612 
Q 791 2297 791 1659 
z
" transform="scale(0.015625)"/>
      </defs>
      <use xlink:href="#ArialMT-41"/>
      <use xlink:href="#ArialMT-6e" transform="translate(66.699219 0)"/>
      <use xlink:href="#ArialMT-6e" transform="translate(122.314453 0)"/>
      <use xlink:href="#ArialMT-6f" transform="translate(177.929688 0)"/>
     </g>
    </g>
   </g>
   <g id="matplotlib.axis_2">
    <g id="ytick_1">
     <g id="line2d_7">
      <path d="M 54 355.794304 
L 388.8 355.794304 
" clip-path="url(#pcaa68eccca)" style="fill: none; stroke: #cccccc; stroke-width: 1.5; stroke-linecap: round"/>
     </g>
     <g id="line2d_8">
      <defs>
       <path id="m5f42bfbf91" d="M 0 0 
L -9 0 
" style="stroke: #262626; stroke-width: 1.875"/>
      </defs>
      <g>
       <use xlink:href="#m5f42bfbf91" x="54" y="355.794304" style="fill: #262626; stroke: #262626; stroke-width: 1.875"/>
      </g>
     </g>
     <g id="text_8">
      <!-- 1.25 -->
      <g style="fill: #262626" transform="translate(25.93125 358.657429) scale(0.08 -0.08)">
       <defs>
        <path id="ArialMT-2e" d="M 581 0 
L 581 641 
L 1222 641 
L 1222 0 
L 581 0 
z
" transform="scale(0.015625)"/>
       </defs>
       <use xlink:href="#ArialMT-31"/>
       <use xlink:href="#ArialMT-2e" transform="translate(55.615234 0)"/>
       <use xlink:href="#ArialMT-32" transform="translate(83.398438 0)"/>
       <use xlink:href="#ArialMT-35" transform="translate(139.013672 0)"/>
      </g>
     </g>
    </g>
    <g id="ytick_2">
     <g id="line2d_9">
      <path d="M 54 314.946874 
L 388.8 314.946874 
" clip-path="url(#pcaa68eccca)" style="fill: none; stroke: #cccccc; stroke-width: 1.5; stroke-linecap: round"/>
     </g>
     <g id="line2d_10">
      <g>
       <use xlink:href="#m5f42bfbf91" x="54" y="314.946874" style="fill: #262626; stroke: #262626; stroke-width: 1.875"/>
      </g>
     </g>
     <g id="text_9">
      <!-- 1.50 -->
      <g style="fill: #262626" transform="translate(25.93125 317.809999) scale(0.08 -0.08)">
       <use xlink:href="#ArialMT-31"/>
       <use xlink:href="#ArialMT-2e" transform="translate(55.615234 0)"/>
       <use xlink:href="#ArialMT-35" transform="translate(83.398438 0)"/>
       <use xlink:href="#ArialMT-30" transform="translate(139.013672 0)"/>
      </g>
     </g>
    </g>
    <g id="ytick_3">
     <g id="line2d_11">
      <path d="M 54 274.099445 
L 388.8 274.099445 
" clip-path="url(#pcaa68eccca)" style="fill: none; stroke: #cccccc; stroke-width: 1.5; stroke-linecap: round"/>
     </g>
     <g id="line2d_12">
      <g>
       <use xlink:href="#m5f42bfbf91" x="54" y="274.099445" style="fill: #262626; stroke: #262626; stroke-width: 1.875"/>
      </g>
     </g>
     <g id="text_10">
      <!-- 1.75 -->
      <g style="fill: #262626" transform="translate(25.93125 276.96257) scale(0.08 -0.08)">
       <defs>
        <path id="ArialMT-37" d="M 303 3981 
L 303 4522 
L 3269 4522 
L 3269 4084 
Q 2831 3619 2401 2847 
Q 1972 2075 1738 1259 
Q 1569 684 1522 0 
L 944 0 
Q 953 541 1156 1306 
Q 1359 2072 1739 2783 
Q 2119 3494 2547 3981 
L 303 3981 
z
" transform="scale(0.015625)"/>
       </defs>
       <use xlink:href="#ArialMT-31"/>
       <use xlink:href="#ArialMT-2e" transform="translate(55.615234 0)"/>
       <use xlink:href="#ArialMT-37" transform="translate(83.398438 0)"/>
       <use xlink:href="#ArialMT-35" transform="translate(139.013672 0)"/>
      </g>
     </g>
    </g>
    <g id="ytick_4">
     <g id="line2d_13">
      <path d="M 54 233.252015 
L 388.8 233.252015 
" clip-path="url(#pcaa68eccca)" style="fill: none; stroke: #cccccc; stroke-width: 1.5; stroke-linecap: round"/>
     </g>
     <g id="line2d_14">
      <g>
       <use xlink:href="#m5f42bfbf91" x="54" y="233.252015" style="fill: #262626; stroke: #262626; stroke-width: 1.875"/>
      </g>
     </g>
     <g id="text_11">
      <!-- 2.00 -->
      <g style="fill: #262626" transform="translate(25.93125 236.11514) scale(0.08 -0.08)">
       <use xlink:href="#ArialMT-32"/>
       <use xlink:href="#ArialMT-2e" transform="translate(55.615234 0)"/>
       <use xlink:href="#ArialMT-30" transform="translate(83.398438 0)"/>
       <use xlink:href="#ArialMT-30" transform="translate(139.013672 0)"/>
      </g>
     </g>
    </g>
    <g id="ytick_5">
     <g id="line2d_15">
      <path d="M 54 192.404585 
L 388.8 192.404585 
" clip-path="url(#pcaa68eccca)" style="fill: none; stroke: #cccccc; stroke-width: 1.5; stroke-linecap: round"/>
     </g>
     <g id="line2d_16">
      <g>
       <use xlink:href="#m5f42bfbf91" x="54" y="192.404585" style="fill: #262626; stroke: #262626; stroke-width: 1.875"/>
      </g>
     </g>
     <g id="text_12">
      <!-- 2.25 -->
      <g style="fill: #262626" transform="translate(25.93125 195.26771) scale(0.08 -0.08)">
       <use xlink:href="#ArialMT-32"/>
       <use xlink:href="#ArialMT-2e" transform="translate(55.615234 0)"/>
       <use xlink:href="#ArialMT-32" transform="translate(83.398438 0)"/>
       <use xlink:href="#ArialMT-35" transform="translate(139.013672 0)"/>
      </g>
     </g>
    </g>
    <g id="ytick_6">
     <g id="line2d_17">
      <path d="M 54 151.557156 
L 388.8 151.557156 
" clip-path="url(#pcaa68eccca)" style="fill: none; stroke: #cccccc; stroke-width: 1.5; stroke-linecap: round"/>
     </g>
     <g id="line2d_18">
      <g>
       <use xlink:href="#m5f42bfbf91" x="54" y="151.557156" style="fill: #262626; stroke: #262626; stroke-width: 1.875"/>
      </g>
     </g>
     <g id="text_13">
      <!-- 2.50 -->
      <g style="fill: #262626" transform="translate(25.93125 154.420281) scale(0.08 -0.08)">
       <use xlink:href="#ArialMT-32"/>
       <use xlink:href="#ArialMT-2e" transform="translate(55.615234 0)"/>
       <use xlink:href="#ArialMT-35" transform="translate(83.398438 0)"/>
       <use xlink:href="#ArialMT-30" transform="translate(139.013672 0)"/>
      </g>
     </g>
    </g>
    <g id="ytick_7">
     <g id="line2d_19">
      <path d="M 54 110.709726 
L 388.8 110.709726 
" clip-path="url(#pcaa68eccca)" style="fill: none; stroke: #cccccc; stroke-width: 1.5; stroke-linecap: round"/>
     </g>
     <g id="line2d_20">
      <g>
       <use xlink:href="#m5f42bfbf91" x="54" y="110.709726" style="fill: #262626; stroke: #262626; stroke-width: 1.875"/>
      </g>
     </g>
     <g id="text_14">
      <!-- 2.75 -->
      <g style="fill: #262626" transform="translate(25.93125 113.572851) scale(0.08 -0.08)">
       <use xlink:href="#ArialMT-32"/>
       <use xlink:href="#ArialMT-2e" transform="translate(55.615234 0)"/>
       <use xlink:href="#ArialMT-37" transform="translate(83.398438 0)"/>
       <use xlink:href="#ArialMT-35" transform="translate(139.013672 0)"/>
      </g>
     </g>
    </g>
    <g id="ytick_8">
     <g id="line2d_21">
      <path d="M 54 69.862296 
L 388.8 69.862296 
" clip-path="url(#pcaa68eccca)" style="fill: none; stroke: #cccccc; stroke-width: 1.5; stroke-linecap: round"/>
     </g>
     <g id="line2d_22">
      <g>
       <use xlink:href="#m5f42bfbf91" x="54" y="69.862296" style="fill: #262626; stroke: #262626; stroke-width: 1.875"/>
      </g>
     </g>
     <g id="text_15">
      <!-- 3.00 -->
      <g style="fill: #262626" transform="translate(25.93125 72.725421) scale(0.08 -0.08)">
       <defs>
        <path id="ArialMT-33" d="M 269 1209 
L 831 1284 
Q 928 806 1161 595 
Q 1394 384 1728 384 
Q 2125 384 2398 659 
Q 2672 934 2672 1341 
Q 2672 1728 2419 1979 
Q 2166 2231 1775 2231 
Q 1616 2231 1378 2169 
L 1441 2663 
Q 1497 2656 1531 2656 
Q 1891 2656 2178 2843 
Q 2466 3031 2466 3422 
Q 2466 3731 2256 3934 
Q 2047 4138 1716 4138 
Q 1388 4138 1169 3931 
Q 950 3725 888 3313 
L 325 3413 
Q 428 3978 793 4289 
Q 1159 4600 1703 4600 
Q 2078 4600 2393 4439 
Q 2709 4278 2876 4000 
Q 3044 3722 3044 3409 
Q 3044 3113 2884 2869 
Q 2725 2625 2413 2481 
Q 2819 2388 3044 2092 
Q 3269 1797 3269 1353 
Q 3269 753 2831 336 
Q 2394 -81 1725 -81 
Q 1122 -81 723 278 
Q 325 638 269 1209 
z
" transform="scale(0.015625)"/>
       </defs>
       <use xlink:href="#ArialMT-33"/>
       <use xlink:href="#ArialMT-2e" transform="translate(55.615234 0)"/>
       <use xlink:href="#ArialMT-30" transform="translate(83.398438 0)"/>
       <use xlink:href="#ArialMT-30" transform="translate(139.013672 0)"/>
      </g>
     </g>
    </g>
    <g id="text_16">
     <!-- Emissioni -->
     <g style="fill: #262626" transform="translate(19.14875 248.11125) rotate(-90) scale(0.14 -0.14)">
      <defs>
       <path id="ArialMT-45" d="M 506 0 
L 506 4581 
L 3819 4581 
L 3819 4041 
L 1113 4041 
L 1113 2638 
L 3647 2638 
L 3647 2100 
L 1113 2100 
L 1113 541 
L 3925 541 
L 3925 0 
L 506 0 
z
" transform="scale(0.015625)"/>
       <path id="ArialMT-6d" d="M 422 0 
L 422 3319 
L 925 3319 
L 925 2853 
Q 1081 3097 1340 3245 
Q 1600 3394 1931 3394 
Q 2300 3394 2536 3241 
Q 2772 3088 2869 2813 
Q 3263 3394 3894 3394 
Q 4388 3394 4653 3120 
Q 4919 2847 4919 2278 
L 4919 0 
L 4359 0 
L 4359 2091 
Q 4359 2428 4304 2576 
Q 4250 2725 4106 2815 
Q 3963 2906 3769 2906 
Q 3419 2906 3187 2673 
Q 2956 2441 2956 1928 
L 2956 0 
L 2394 0 
L 2394 2156 
Q 2394 2531 2256 2718 
Q 2119 2906 1806 2906 
Q 1569 2906 1367 2781 
Q 1166 2656 1075 2415 
Q 984 2175 984 1722 
L 984 0 
L 422 0 
z
" transform="scale(0.015625)"/>
       <path id="ArialMT-69" d="M 425 3934 
L 425 4581 
L 988 4581 
L 988 3934 
L 425 3934 
z
M 425 0 
L 425 3319 
L 988 3319 
L 988 0 
L 425 0 
z
" transform="scale(0.015625)"/>
       <path id="ArialMT-73" d="M 197 991 
L 753 1078 
Q 800 744 1014 566 
Q 1228 388 1613 388 
Q 2000 388 2187 545 
Q 2375 703 2375 916 
Q 2375 1106 2209 1216 
Q 2094 1291 1634 1406 
Q 1016 1563 777 1677 
Q 538 1791 414 1992 
Q 291 2194 291 2438 
Q 291 2659 392 2848 
Q 494 3038 669 3163 
Q 800 3259 1026 3326 
Q 1253 3394 1513 3394 
Q 1903 3394 2198 3281 
Q 2494 3169 2634 2976 
Q 2775 2784 2828 2463 
L 2278 2388 
Q 2241 2644 2061 2787 
Q 1881 2931 1553 2931 
Q 1166 2931 1000 2803 
Q 834 2675 834 2503 
Q 834 2394 903 2306 
Q 972 2216 1119 2156 
Q 1203 2125 1616 2013 
Q 2213 1853 2448 1751 
Q 2684 1650 2818 1456 
Q 2953 1263 2953 975 
Q 2953 694 2789 445 
Q 2625 197 2315 61 
Q 2006 -75 1616 -75 
Q 969 -75 630 194 
Q 291 463 197 991 
z
" transform="scale(0.015625)"/>
      </defs>
      <use xlink:href="#ArialMT-45"/>
      <use xlink:href="#ArialMT-6d" transform="translate(66.699219 0)"/>
      <use xlink:href="#ArialMT-69" transform="translate(150 0)"/>
      <use xlink:href="#ArialMT-73" transform="translate(172.216797 0)"/>
      <use xlink:href="#ArialMT-73" transform="translate(222.216797 0)"/>
      <use xlink:href="#ArialMT-69" transform="translate(272.216797 0)"/>
      <use xlink:href="#ArialMT-6f" transform="translate(294.433594 0)"/>
      <use xlink:href="#ArialMT-6e" transform="translate(350.048828 0)"/>
      <use xlink:href="#ArialMT-69" transform="translate(405.664062 0)"/>
     </g>
    </g>
    <g id="text_17">
     <!-- 1e8 -->
     <g style="fill: #262626" transform="translate(54 48.84) scale(0.165 -0.165)">
      <defs>
       <path id="ArialMT-65" d="M 2694 1069 
L 3275 997 
Q 3138 488 2766 206 
Q 2394 -75 1816 -75 
Q 1088 -75 661 373 
Q 234 822 234 1631 
Q 234 2469 665 2931 
Q 1097 3394 1784 3394 
Q 2450 3394 2872 2941 
Q 3294 2488 3294 1666 
Q 3294 1616 3291 1516 
L 816 1516 
Q 847 969 1125 678 
Q 1403 388 1819 388 
Q 2128 388 2347 550 
Q 2566 713 2694 1069 
z
M 847 1978 
L 2700 1978 
Q 2663 2397 2488 2606 
Q 2219 2931 1791 2931 
Q 1403 2931 1139 2672 
Q 875 2413 847 1978 
z
" transform="scale(0.015625)"/>
       <path id="ArialMT-38" d="M 1131 2484 
Q 781 2613 612 2850 
Q 444 3088 444 3419 
Q 444 3919 803 4259 
Q 1163 4600 1759 4600 
Q 2359 4600 2725 4251 
Q 3091 3903 3091 3403 
Q 3091 3084 2923 2848 
Q 2756 2613 2416 2484 
Q 2838 2347 3058 2040 
Q 3278 1734 3278 1309 
Q 3278 722 2862 322 
Q 2447 -78 1769 -78 
Q 1091 -78 675 323 
Q 259 725 259 1325 
Q 259 1772 486 2073 
Q 713 2375 1131 2484 
z
M 1019 3438 
Q 1019 3113 1228 2906 
Q 1438 2700 1772 2700 
Q 2097 2700 2305 2904 
Q 2513 3109 2513 3406 
Q 2513 3716 2298 3927 
Q 2084 4138 1766 4138 
Q 1444 4138 1231 3931 
Q 1019 3725 1019 3438 
z
M 838 1322 
Q 838 1081 952 856 
Q 1066 631 1291 507 
Q 1516 384 1775 384 
Q 2178 384 2440 643 
Q 2703 903 2703 1303 
Q 2703 1709 2433 1975 
Q 2163 2241 1756 2241 
Q 1359 2241 1098 1978 
Q 838 1716 838 1322 
z
" transform="scale(0.015625)"/>
      </defs>
      <use xlink:href="#ArialMT-31"/>
      <use xlink:href="#ArialMT-65" transform="translate(55.615234 0)"/>
      <use xlink:href="#ArialMT-38" transform="translate(111.230469 0)"/>
     </g>
    </g>
   </g>
   <g id="PathCollection_1">
    <path d="M 69.218182 70.141981 
C 70.062053 70.141981 70.871475 69.806707 71.468182 69.21 
C 72.064889 68.613293 72.400162 67.803871 72.400162 66.96 
C 72.400162 66.116129 72.064889 65.306707 71.468182 64.71 
C 70.871475 64.113293 70.062053 63.778019 69.218182 63.778019 
C 68.374311 63.778019 67.564889 64.113293 66.968182 64.71 
C 66.371475 65.306707 66.036201 66.116129 66.036201 66.96 
C 66.036201 67.803871 66.371475 68.613293 66.968182 69.21 
C 67.564889 69.806707 68.374311 70.141981 69.218182 70.141981 
z
" clip-path="url(#pcaa68eccca)" style="fill: #4c72b0; stroke: #ffffff; stroke-width: 0.509117"/>
    <path d="M 80.490909 76.692121 
C 81.33478 76.692121 82.144202 76.356847 82.740909 75.76014 
C 83.337616 75.163433 83.67289 74.354011 83.67289 73.51014 
C 83.67289 72.666269 83.337616 71.856847 82.740909 71.26014 
C 82.144202 70.663433 81.33478 70.32816 80.490909 70.32816 
C 79.647038 70.32816 78.837616 70.663433 78.240909 71.26014 
C 77.644202 71.856847 77.308929 72.666269 77.308929 73.51014 
C 77.308929 74.354011 77.644202 75.163433 78.240909 75.76014 
C 78.837616 76.356847 79.647038 76.692121 80.490909 76.692121 
z
" clip-path="url(#pcaa68eccca)" style="fill: #4c72b0; stroke: #ffffff; stroke-width: 0.509117"/>
    <path d="M 91.763636 98.295745 
C 92.607507 98.295745 93.416929 97.960471 94.013636 97.363764 
C 94.610343 96.767057 94.945617 95.957635 94.945617 95.113764 
C 94.945617 94.269893 94.610343 93.460471 94.013636 92.863764 
C 93.416929 92.267057 92.607507 91.931784 91.763636 91.931784 
C 90.919765 91.931784 90.110343 92.267057 89.513636 92.863764 
C 88.916929 93.460471 88.581656 94.269893 88.581656 95.113764 
C 88.581656 95.957635 88.916929 96.767057 89.513636 97.363764 
C 90.110343 97.960471 90.919765 98.295745 91.763636 98.295745 
z
" clip-path="url(#pcaa68eccca)" style="fill: #4c72b0; stroke: #ffffff; stroke-width: 0.509117"/>
    <path d="M 103.036364 122.6747 
C 103.880235 122.6747 104.689657 122.339426 105.286364 121.742719 
C 105.883071 121.146012 106.218344 120.33659 106.218344 119.492719 
C 106.218344 118.648848 105.883071 117.839426 105.286364 117.242719 
C 104.689657 116.646012 103.880235 116.310739 103.036364 116.310739 
C 102.192493 116.310739 101.383071 116.646012 100.786364 117.242719 
C 100.189657 117.839426 99.854383 118.648848 99.854383 119.492719 
C 99.854383 120.33659 100.189657 121.146012 100.786364 121.742719 
C 101.383071 122.339426 102.192493 122.6747 103.036364 122.6747 
z
" clip-path="url(#pcaa68eccca)" style="fill: #4c72b0; stroke: #ffffff; stroke-width: 0.509117"/>
    <path d="M 114.309091 148.238807 
C 115.152962 148.238807 115.962384 147.903533 116.559091 147.306827 
C 117.155798 146.71012 117.491071 145.900698 117.491071 145.056827 
C 117.491071 144.212955 117.155798 143.403533 116.559091 142.806827 
C 115.962384 142.21012 115.152962 141.874846 114.309091 141.874846 
C 113.46522 141.874846 112.655798 142.21012 112.059091 142.806827 
C 111.462384 143.403533 111.12711 144.212955 111.12711 145.056827 
C 111.12711 145.900698 111.462384 146.71012 112.059091 147.306827 
C 112.655798 147.903533 113.46522 148.238807 114.309091 148.238807 
z
" clip-path="url(#pcaa68eccca)" style="fill: #4c72b0; stroke: #ffffff; stroke-width: 0.509117"/>
    <path d="M 125.581818 172.375862 
C 126.425689 172.375862 127.235111 172.040588 127.831818 171.443881 
C 128.428525 170.847175 128.763799 170.037753 128.763799 169.193881 
C 128.763799 168.35001 128.428525 167.540588 127.831818 166.943881 
C 127.235111 166.347175 126.425689 166.011901 125.581818 166.011901 
C 124.737947 166.011901 123.928525 166.347175 123.331818 166.943881 
C 122.735111 167.540588 122.399838 168.35001 122.399838 169.193881 
C 122.399838 170.037753 122.735111 170.847175 123.331818 171.443881 
C 123.928525 172.040588 124.737947 172.375862 125.581818 172.375862 
z
" clip-path="url(#pcaa68eccca)" style="fill: #4c72b0; stroke: #ffffff; stroke-width: 0.509117"/>
    <path d="M 136.854545 188.032231 
C 137.698417 188.032231 138.507838 187.696957 139.104545 187.10025 
C 139.701252 186.503543 140.036526 185.694121 140.036526 184.85025 
C 140.036526 184.006379 139.701252 183.196957 139.104545 182.60025 
C 138.507838 182.003543 137.698417 181.66827 136.854545 181.66827 
C 136.010674 181.66827 135.201252 182.003543 134.604545 182.60025 
C 134.007838 183.196957 133.672565 184.006379 133.672565 184.85025 
C 133.672565 185.694121 134.007838 186.503543 134.604545 187.10025 
C 135.201252 187.696957 136.010674 188.032231 136.854545 188.032231 
z
" clip-path="url(#pcaa68eccca)" style="fill: #4c72b0; stroke: #ffffff; stroke-width: 0.509117"/>
    <path d="M 148.127273 200.733585 
C 148.971144 200.733585 149.780566 200.398312 150.377273 199.801605 
C 150.97398 199.204898 151.309253 198.395476 151.309253 197.551605 
C 151.309253 196.707734 150.97398 195.898312 150.377273 195.301605 
C 149.780566 194.704898 148.971144 194.369624 148.127273 194.369624 
C 147.283402 194.369624 146.47398 194.704898 145.877273 195.301605 
C 145.280566 195.898312 144.945292 196.707734 144.945292 197.551605 
C 144.945292 198.395476 145.280566 199.204898 145.877273 199.801605 
C 146.47398 200.398312 147.283402 200.733585 148.127273 200.733585 
z
" clip-path="url(#pcaa68eccca)" style="fill: #4c72b0; stroke: #ffffff; stroke-width: 0.509117"/>
    <path d="M 159.4 206.557656 
C 160.243871 206.557656 161.053293 206.222383 161.65 205.625676 
C 162.246707 205.028969 162.581981 204.219547 162.581981 203.375676 
C 162.581981 202.531805 162.246707 201.722383 161.65 201.125676 
C 161.053293 200.528969 160.243871 200.193695 159.4 200.193695 
C 158.556129 200.193695 157.746707 200.528969 157.15 201.125676 
C 156.553293 201.722383 156.218019 202.531805 156.218019 203.375676 
C 156.218019 204.219547 156.553293 205.028969 157.15 205.625676 
C 157.746707 206.222383 158.556129 206.557656 159.4 206.557656 
z
" clip-path="url(#pcaa68eccca)" style="fill: #4c72b0; stroke: #ffffff; stroke-width: 0.509117"/>
    <path d="M 170.672727 219.310993 
C 171.516598 219.310993 172.32602 218.97572 172.922727 218.379013 
C 173.519434 217.782306 173.854708 216.972884 173.854708 216.129013 
C 173.854708 215.285142 173.519434 214.47572 172.922727 213.879013 
C 172.32602 213.282306 171.516598 212.947032 170.672727 212.947032 
C 169.828856 212.947032 169.019434 213.282306 168.422727 213.879013 
C 167.82602 214.47572 167.490747 215.285142 167.490747 216.129013 
C 167.490747 216.972884 167.82602 217.782306 168.422727 218.379013 
C 169.019434 218.97572 169.828856 219.310993 170.672727 219.310993 
z
" clip-path="url(#pcaa68eccca)" style="fill: #4c72b0; stroke: #ffffff; stroke-width: 0.509117"/>
    <path d="M 181.945455 230.986046 
C 182.789326 230.986046 183.598748 230.650773 184.195455 230.054066 
C 184.792162 229.457359 185.127435 228.647937 185.127435 227.804066 
C 185.127435 226.960195 184.792162 226.150773 184.195455 225.554066 
C 183.598748 224.957359 182.789326 224.622085 181.945455 224.622085 
C 181.101583 224.622085 180.292162 224.957359 179.695455 225.554066 
C 179.098748 226.150773 178.763474 226.960195 178.763474 227.804066 
C 178.763474 228.647937 179.098748 229.457359 179.695455 230.054066 
C 180.292162 230.650773 181.101583 230.986046 181.945455 230.986046 
z
" clip-path="url(#pcaa68eccca)" style="fill: #4c72b0; stroke: #ffffff; stroke-width: 0.509117"/>
    <path d="M 193.218182 238.504914 
C 194.062053 238.504914 194.871475 238.169641 195.468182 237.572934 
C 196.064889 236.976227 196.400162 236.166805 196.400162 235.322934 
C 196.400162 234.479063 196.064889 233.669641 195.468182 233.072934 
C 194.871475 232.476227 194.062053 232.140953 193.218182 232.140953 
C 192.374311 232.140953 191.564889 232.476227 190.968182 233.072934 
C 190.371475 233.669641 190.036201 234.479063 190.036201 235.322934 
C 190.036201 236.166805 190.371475 236.976227 190.968182 237.572934 
C 191.564889 238.169641 192.374311 238.504914 193.218182 238.504914 
z
" clip-path="url(#pcaa68eccca)" style="fill: #4c72b0; stroke: #ffffff; stroke-width: 0.509117"/>
    <path d="M 204.490909 249.185003 
C 205.33478 249.185003 206.144202 248.849729 206.740909 248.253022 
C 207.337616 247.656315 207.67289 246.846893 207.67289 246.003022 
C 207.67289 245.159151 207.337616 244.349729 206.740909 243.753022 
C 206.144202 243.156315 205.33478 242.821042 204.490909 242.821042 
C 203.647038 242.821042 202.837616 243.156315 202.240909 243.753022 
C 201.644202 244.349729 201.308929 245.159151 201.308929 246.003022 
C 201.308929 246.846893 201.644202 247.656315 202.240909 248.253022 
C 202.837616 248.849729 203.647038 249.185003 204.490909 249.185003 
z
" clip-path="url(#pcaa68eccca)" style="fill: #4c72b0; stroke: #ffffff; stroke-width: 0.509117"/>
    <path d="M 215.763636 266.000823 
C 216.607507 266.000823 217.416929 265.665549 218.013636 265.068842 
C 218.610343 264.472135 218.945617 263.662713 218.945617 262.818842 
C 218.945617 261.974971 218.610343 261.165549 218.013636 260.568842 
C 217.416929 259.972135 216.607507 259.636862 215.763636 259.636862 
C 214.919765 259.636862 214.110343 259.972135 213.513636 260.568842 
C 212.916929 261.165549 212.581656 261.974971 212.581656 262.818842 
C 212.581656 263.662713 212.916929 264.472135 213.513636 265.068842 
C 214.110343 265.665549 214.919765 266.000823 215.763636 266.000823 
z
" clip-path="url(#pcaa68eccca)" style="fill: #4c72b0; stroke: #ffffff; stroke-width: 0.509117"/>
    <path d="M 227.036364 286.821334 
C 227.880235 286.821334 228.689657 286.486061 229.286364 285.889354 
C 229.883071 285.292647 230.218344 284.483225 230.218344 283.639354 
C 230.218344 282.795483 229.883071 281.986061 229.286364 281.389354 
C 228.689657 280.792647 227.880235 280.457373 227.036364 280.457373 
C 226.192493 280.457373 225.383071 280.792647 224.786364 281.389354 
C 224.189657 281.986061 223.854383 282.795483 223.854383 283.639354 
C 223.854383 284.483225 224.189657 285.292647 224.786364 285.889354 
C 225.383071 286.486061 226.192493 286.821334 227.036364 286.821334 
z
" clip-path="url(#pcaa68eccca)" style="fill: #4c72b0; stroke: #ffffff; stroke-width: 0.509117"/>
    <path d="M 238.309091 285.120477 
C 239.152962 285.120477 239.962384 284.785203 240.559091 284.188496 
C 241.155798 283.591789 241.491071 282.782367 241.491071 281.938496 
C 241.491071 281.094625 241.155798 280.285203 240.559091 279.688496 
C 239.962384 279.091789 239.152962 278.756516 238.309091 278.756516 
C 237.46522 278.756516 236.655798 279.091789 236.059091 279.688496 
C 235.462384 280.285203 235.12711 281.094625 235.12711 281.938496 
C 235.12711 282.782367 235.462384 283.591789 236.059091 284.188496 
C 236.655798 284.785203 237.46522 285.120477 238.309091 285.120477 
z
" clip-path="url(#pcaa68eccca)" style="fill: #4c72b0; stroke: #ffffff; stroke-width: 0.509117"/>
    <path d="M 249.581818 300.155571 
C 250.425689 300.155571 251.235111 299.820297 251.831818 299.22359 
C 252.428525 298.626883 252.763799 297.817461 252.763799 296.97359 
C 252.763799 296.129719 252.428525 295.320297 251.831818 294.72359 
C 251.235111 294.126883 250.425689 293.79161 249.581818 293.79161 
C 248.737947 293.79161 247.928525 294.126883 247.331818 294.72359 
C 246.735111 295.320297 246.399838 296.129719 246.399838 296.97359 
C 246.399838 297.817461 246.735111 298.626883 247.331818 299.22359 
C 247.928525 299.820297 248.737947 300.155571 249.581818 300.155571 
z
" clip-path="url(#pcaa68eccca)" style="fill: #4c72b0; stroke: #ffffff; stroke-width: 0.509117"/>
    <path d="M 260.854545 307.079437 
C 261.698417 307.079437 262.507838 306.744164 263.104545 306.147457 
C 263.701252 305.55075 264.036526 304.741328 264.036526 303.897457 
C 264.036526 303.053586 263.701252 302.244164 263.104545 301.647457 
C 262.507838 301.05075 261.698417 300.715476 260.854545 300.715476 
C 260.010674 300.715476 259.201252 301.05075 258.604545 301.647457 
C 258.007838 302.244164 257.672565 303.053586 257.672565 303.897457 
C 257.672565 304.741328 258.007838 305.55075 258.604545 306.147457 
C 259.201252 306.744164 260.010674 307.079437 260.854545 307.079437 
z
" clip-path="url(#pcaa68eccca)" style="fill: #4c72b0; stroke: #ffffff; stroke-width: 0.509117"/>
    <path d="M 272.127273 315.744576 
C 272.971144 315.744576 273.780566 315.409302 274.377273 314.812595 
C 274.97398 314.215888 275.309253 313.406466 275.309253 312.562595 
C 275.309253 311.718724 274.97398 310.909302 274.377273 310.312595 
C 273.780566 309.715888 272.971144 309.380615 272.127273 309.380615 
C 271.283402 309.380615 270.47398 309.715888 269.877273 310.312595 
C 269.280566 310.909302 268.945292 311.718724 268.945292 312.562595 
C 268.945292 313.406466 269.280566 314.215888 269.877273 314.812595 
C 270.47398 315.409302 271.283402 315.744576 272.127273 315.744576 
z
" clip-path="url(#pcaa68eccca)" style="fill: #4c72b0; stroke: #ffffff; stroke-width: 0.509117"/>
    <path d="M 283.4 332.054139 
C 284.243871 332.054139 285.053293 331.718865 285.65 331.122158 
C 286.246707 330.525451 286.581981 329.71603 286.581981 328.872158 
C 286.581981 328.028287 286.246707 327.218865 285.65 326.622158 
C 285.053293 326.025451 284.243871 325.690178 283.4 325.690178 
C 282.556129 325.690178 281.746707 326.025451 281.15 326.622158 
C 280.553293 327.218865 280.218019 328.028287 280.218019 328.872158 
C 280.218019 329.71603 280.553293 330.525451 281.15 331.122158 
C 281.746707 331.718865 282.556129 332.054139 283.4 332.054139 
z
" clip-path="url(#pcaa68eccca)" style="fill: #4c72b0; stroke: #ffffff; stroke-width: 0.509117"/>
    <path d="M 294.672727 332.079798 
C 295.516598 332.079798 296.32602 331.744524 296.922727 331.147817 
C 297.519434 330.55111 297.854708 329.741688 297.854708 328.897817 
C 297.854708 328.053946 297.519434 327.244524 296.922727 326.647817 
C 296.32602 326.05111 295.516598 325.715837 294.672727 325.715837 
C 293.828856 325.715837 293.019434 326.05111 292.422727 326.647817 
C 291.82602 327.244524 291.490747 328.053946 291.490747 328.897817 
C 291.490747 329.741688 291.82602 330.55111 292.422727 331.147817 
C 293.019434 331.744524 293.828856 332.079798 294.672727 332.079798 
z
" clip-path="url(#pcaa68eccca)" style="fill: #4c72b0; stroke: #ffffff; stroke-width: 0.509117"/>
    <path d="M 305.945455 337.080302 
C 306.789326 337.080302 307.598748 336.745029 308.195455 336.148322 
C 308.792162 335.551615 309.127435 334.742193 309.127435 333.898322 
C 309.127435 333.054451 308.792162 332.245029 308.195455 331.648322 
C 307.598748 331.051615 306.789326 330.716341 305.945455 330.716341 
C 305.101583 330.716341 304.292162 331.051615 303.695455 331.648322 
C 303.098748 332.245029 302.763474 333.054451 302.763474 333.898322 
C 302.763474 334.742193 303.098748 335.551615 303.695455 336.148322 
C 304.292162 336.745029 305.101583 337.080302 305.945455 337.080302 
z
" clip-path="url(#pcaa68eccca)" style="fill: #4c72b0; stroke: #ffffff; stroke-width: 0.509117"/>
    <path d="M 317.218182 336.225715 
C 318.062053 336.225715 318.871475 335.890442 319.468182 335.293735 
C 320.064889 334.697028 320.400162 333.887606 320.400162 333.043735 
C 320.400162 332.199864 320.064889 331.390442 319.468182 330.793735 
C 318.871475 330.197028 318.062053 329.861754 317.218182 329.861754 
C 316.374311 329.861754 315.564889 330.197028 314.968182 330.793735 
C 314.371475 331.390442 314.036201 332.199864 314.036201 333.043735 
C 314.036201 333.887606 314.371475 334.697028 314.968182 335.293735 
C 315.564889 335.890442 316.374311 336.225715 317.218182 336.225715 
z
" clip-path="url(#pcaa68eccca)" style="fill: #4c72b0; stroke: #ffffff; stroke-width: 0.509117"/>
    <path d="M 328.490909 342.735905 
C 329.33478 342.735905 330.144202 342.400632 330.740909 341.803925 
C 331.337616 341.207218 331.67289 340.397796 331.67289 339.553925 
C 331.67289 338.710054 331.337616 337.900632 330.740909 337.303925 
C 330.144202 336.707218 329.33478 336.371944 328.490909 336.371944 
C 327.647038 336.371944 326.837616 336.707218 326.240909 337.303925 
C 325.644202 337.900632 325.308929 338.710054 325.308929 339.553925 
C 325.308929 340.397796 325.644202 341.207218 326.240909 341.803925 
C 326.837616 342.400632 327.647038 342.735905 328.490909 342.735905 
z
" clip-path="url(#pcaa68eccca)" style="fill: #4c72b0; stroke: #ffffff; stroke-width: 0.509117"/>
    <path d="M 339.763636 353.055923 
C 340.607507 353.055923 341.416929 352.72065 342.013636 352.123943 
C 342.610343 351.527236 342.945617 350.717814 342.945617 349.873943 
C 342.945617 349.030072 342.610343 348.22065 342.013636 347.623943 
C 341.416929 347.027236 340.607507 346.691962 339.763636 346.691962 
C 338.919765 346.691962 338.110343 347.027236 337.513636 347.623943 
C 336.916929 348.22065 336.581656 349.030072 336.581656 349.873943 
C 336.581656 350.717814 336.916929 351.527236 337.513636 352.123943 
C 338.110343 352.72065 338.919765 353.055923 339.763636 353.055923 
z
" clip-path="url(#pcaa68eccca)" style="fill: #4c72b0; stroke: #ffffff; stroke-width: 0.509117"/>
    <path d="M 351.036364 368.670724 
C 351.880235 368.670724 352.689657 368.335451 353.286364 367.738744 
C 353.883071 367.142037 354.218344 366.332615 354.218344 365.488744 
C 354.218344 364.644873 353.883071 363.835451 353.286364 363.238744 
C 352.689657 362.642037 351.880235 362.306763 351.036364 362.306763 
C 350.192493 362.306763 349.383071 362.642037 348.786364 363.238744 
C 348.189657 363.835451 347.854383 364.644873 347.854383 365.488744 
C 347.854383 366.332615 348.189657 367.142037 348.786364 367.738744 
C 349.383071 368.335451 350.192493 368.670724 351.036364 368.670724 
z
" clip-path="url(#pcaa68eccca)" style="fill: #4c72b0; stroke: #ffffff; stroke-width: 0.509117"/>
    <path d="M 362.309091 363.664837 
C 363.152962 363.664837 363.962384 363.329564 364.559091 362.732857 
C 365.155798 362.13615 365.491071 361.326728 365.491071 360.482857 
C 365.491071 359.638986 365.155798 358.829564 364.559091 358.232857 
C 363.962384 357.63615 363.152962 357.300876 362.309091 357.300876 
C 361.46522 357.300876 360.655798 357.63615 360.059091 358.232857 
C 359.462384 358.829564 359.12711 359.638986 359.12711 360.482857 
C 359.12711 361.326728 359.462384 362.13615 360.059091 362.732857 
C 360.655798 363.329564 361.46522 363.664837 362.309091 363.664837 
z
" clip-path="url(#pcaa68eccca)" style="fill: #4c72b0; stroke: #ffffff; stroke-width: 0.509117"/>
    <path d="M 373.581818 372.541981 
C 374.425689 372.541981 375.235111 372.206707 375.831818 371.61 
C 376.428525 371.013293 376.763799 370.203871 376.763799 369.36 
C 376.763799 368.516129 376.428525 367.706707 375.831818 367.11 
C 375.235111 366.513293 374.425689 366.178019 373.581818 366.178019 
C 372.737947 366.178019 371.928525 366.513293 371.331818 367.11 
C 370.735111 367.706707 370.399838 368.516129 370.399838 369.36 
C 370.399838 370.203871 370.735111 371.013293 371.331818 371.61 
C 371.928525 372.206707 372.737947 372.541981 373.581818 372.541981 
z
" clip-path="url(#pcaa68eccca)" style="fill: #4c72b0; stroke: #ffffff; stroke-width: 0.509117"/>
   </g>
   <g id="line2d_23">
    <path d="M 69.218182 66.96 
L 80.490909 73.51014 
L 91.763636 95.113764 
L 103.036364 119.492719 
L 114.309091 145.056827 
L 125.581818 169.193881 
L 136.854545 184.85025 
L 148.127273 197.551605 
L 159.4 203.375676 
L 170.672727 216.129013 
L 181.945455 227.804066 
L 193.218182 235.322934 
L 204.490909 246.003022 
L 215.763636 262.818842 
L 227.036364 283.639354 
L 238.309091 281.938496 
L 249.581818 296.97359 
L 260.854545 303.897457 
L 272.127273 312.562595 
L 283.4 328.872158 
L 294.672727 328.897817 
L 305.945455 333.898322 
L 317.218182 333.043735 
L 328.490909 339.553925 
L 339.763636 349.873943 
L 351.036364 365.488744 
L 362.309091 360.482857 
L 373.581818 369.36 
" clip-path="url(#pcaa68eccca)" style="fill: none; stroke: #4c72b0; stroke-width: 2; stroke-linecap: round"/>
   </g>
   <g id="patch_3">
    <path d="M 54 384.48 
L 54 51.84 
" style="fill: none; stroke: #cccccc; stroke-width: 1.875; stroke-linejoin: miter; stroke-linecap: square"/>
   </g>
   <g id="patch_4">
    <path d="M 388.8 384.48 
L 388.8 51.84 
" style="fill: none; stroke: #cccccc; stroke-width: 1.875; stroke-linejoin: miter; stroke-linecap: square"/>
   </g>
   <g id="patch_5">
    <path d="M 54 384.48 
L 388.8 384.48 
" style="fill: none; stroke: #cccccc; stroke-width: 1.875; stroke-linejoin: miter; stroke-linecap: square"/>
   </g>
   <g id="patch_6">
    <path d="M 54 51.84 
L 388.8 51.84 
" style="fill: none; stroke: #cccccc; stroke-width: 1.875; stroke-linejoin: miter; stroke-linecap: square"/>
   </g>
   <g id="text_18">
    <!-- Variazione delle emissioni al variare delle Green Taxes -->
    <g style="fill: #262626" transform="translate(3.628125 31.029609) scale(0.18 -0.18)">
     <defs>
      <path id="ArialMT-56" d="M 1803 0 
L 28 4581 
L 684 4581 
L 1875 1253 
Q 2019 853 2116 503 
Q 2222 878 2363 1253 
L 3600 4581 
L 4219 4581 
L 2425 0 
L 1803 0 
z
" transform="scale(0.015625)"/>
      <path id="ArialMT-61" d="M 2588 409 
Q 2275 144 1986 34 
Q 1697 -75 1366 -75 
Q 819 -75 525 192 
Q 231 459 231 875 
Q 231 1119 342 1320 
Q 453 1522 633 1644 
Q 813 1766 1038 1828 
Q 1203 1872 1538 1913 
Q 2219 1994 2541 2106 
Q 2544 2222 2544 2253 
Q 2544 2597 2384 2738 
Q 2169 2928 1744 2928 
Q 1347 2928 1158 2789 
Q 969 2650 878 2297 
L 328 2372 
Q 403 2725 575 2942 
Q 747 3159 1072 3276 
Q 1397 3394 1825 3394 
Q 2250 3394 2515 3294 
Q 2781 3194 2906 3042 
Q 3031 2891 3081 2659 
Q 3109 2516 3109 2141 
L 3109 1391 
Q 3109 606 3145 398 
Q 3181 191 3288 0 
L 2700 0 
Q 2613 175 2588 409 
z
M 2541 1666 
Q 2234 1541 1622 1453 
Q 1275 1403 1131 1340 
Q 988 1278 909 1158 
Q 831 1038 831 891 
Q 831 666 1001 516 
Q 1172 366 1500 366 
Q 1825 366 2078 508 
Q 2331 650 2450 897 
Q 2541 1088 2541 1459 
L 2541 1666 
z
" transform="scale(0.015625)"/>
      <path id="ArialMT-72" d="M 416 0 
L 416 3319 
L 922 3319 
L 922 2816 
Q 1116 3169 1280 3281 
Q 1444 3394 1641 3394 
Q 1925 3394 2219 3213 
L 2025 2691 
Q 1819 2813 1613 2813 
Q 1428 2813 1281 2702 
Q 1134 2591 1072 2394 
Q 978 2094 978 1738 
L 978 0 
L 416 0 
z
" transform="scale(0.015625)"/>
      <path id="ArialMT-7a" d="M 125 0 
L 125 456 
L 2238 2881 
Q 1878 2863 1603 2863 
L 250 2863 
L 250 3319 
L 2963 3319 
L 2963 2947 
L 1166 841 
L 819 456 
Q 1197 484 1528 484 
L 3063 484 
L 3063 0 
L 125 0 
z
" transform="scale(0.015625)"/>
      <path id="ArialMT-20" transform="scale(0.015625)"/>
      <path id="ArialMT-64" d="M 2575 0 
L 2575 419 
Q 2259 -75 1647 -75 
Q 1250 -75 917 144 
Q 584 363 401 755 
Q 219 1147 219 1656 
Q 219 2153 384 2558 
Q 550 2963 881 3178 
Q 1213 3394 1622 3394 
Q 1922 3394 2156 3267 
Q 2391 3141 2538 2938 
L 2538 4581 
L 3097 4581 
L 3097 0 
L 2575 0 
z
M 797 1656 
Q 797 1019 1065 703 
Q 1334 388 1700 388 
Q 2069 388 2326 689 
Q 2584 991 2584 1609 
Q 2584 2291 2321 2609 
Q 2059 2928 1675 2928 
Q 1300 2928 1048 2622 
Q 797 2316 797 1656 
z
" transform="scale(0.015625)"/>
      <path id="ArialMT-6c" d="M 409 0 
L 409 4581 
L 972 4581 
L 972 0 
L 409 0 
z
" transform="scale(0.015625)"/>
      <path id="ArialMT-76" d="M 1344 0 
L 81 3319 
L 675 3319 
L 1388 1331 
Q 1503 1009 1600 663 
Q 1675 925 1809 1294 
L 2547 3319 
L 3125 3319 
L 1869 0 
L 1344 0 
z
" transform="scale(0.015625)"/>
      <path id="ArialMT-47" d="M 2638 1797 
L 2638 2334 
L 4578 2338 
L 4578 638 
Q 4131 281 3656 101 
Q 3181 -78 2681 -78 
Q 2006 -78 1454 211 
Q 903 500 622 1047 
Q 341 1594 341 2269 
Q 341 2938 620 3517 
Q 900 4097 1425 4378 
Q 1950 4659 2634 4659 
Q 3131 4659 3532 4498 
Q 3934 4338 4162 4050 
Q 4391 3763 4509 3300 
L 3963 3150 
Q 3859 3500 3706 3700 
Q 3553 3900 3268 4020 
Q 2984 4141 2638 4141 
Q 2222 4141 1919 4014 
Q 1616 3888 1430 3681 
Q 1244 3475 1141 3228 
Q 966 2803 966 2306 
Q 966 1694 1177 1281 
Q 1388 869 1791 669 
Q 2194 469 2647 469 
Q 3041 469 3416 620 
Q 3791 772 3984 944 
L 3984 1797 
L 2638 1797 
z
" transform="scale(0.015625)"/>
      <path id="ArialMT-54" d="M 1659 0 
L 1659 4041 
L 150 4041 
L 150 4581 
L 3781 4581 
L 3781 4041 
L 2266 4041 
L 2266 0 
L 1659 0 
z
" transform="scale(0.015625)"/>
      <path id="ArialMT-78" d="M 47 0 
L 1259 1725 
L 138 3319 
L 841 3319 
L 1350 2541 
Q 1494 2319 1581 2169 
Q 1719 2375 1834 2534 
L 2394 3319 
L 3066 3319 
L 1919 1756 
L 3153 0 
L 2463 0 
L 1781 1031 
L 1600 1309 
L 728 0 
L 47 0 
z
" transform="scale(0.015625)"/>
     </defs>
     <use xlink:href="#ArialMT-56"/>
     <use xlink:href="#ArialMT-61" transform="translate(59.324219 0)"/>
     <use xlink:href="#ArialMT-72" transform="translate(114.939453 0)"/>
     <use xlink:href="#ArialMT-69" transform="translate(148.240234 0)"/>
     <use xlink:href="#ArialMT-61" transform="translate(170.457031 0)"/>
     <use xlink:href="#ArialMT-7a" transform="translate(226.072266 0)"/>
     <use xlink:href="#ArialMT-69" transform="translate(276.072266 0)"/>
     <use xlink:href="#ArialMT-6f" transform="translate(298.289062 0)"/>
     <use xlink:href="#ArialMT-6e" transform="translate(353.904297 0)"/>
     <use xlink:href="#ArialMT-65" transform="translate(409.519531 0)"/>
     <use xlink:href="#ArialMT-20" transform="translate(465.134766 0)"/>
     <use xlink:href="#ArialMT-64" transform="translate(492.917969 0)"/>
     <use xlink:href="#ArialMT-65" transform="translate(548.533203 0)"/>
     <use xlink:href="#ArialMT-6c" transform="translate(604.148438 0)"/>
     <use xlink:href="#ArialMT-6c" transform="translate(626.365234 0)"/>
     <use xlink:href="#ArialMT-65" transform="translate(648.582031 0)"/>
     <use xlink:href="#ArialMT-20" transform="translate(704.197266 0)"/>
     <use xlink:href="#ArialMT-65" transform="translate(731.980469 0)"/>
     <use xlink:href="#ArialMT-6d" transform="translate(787.595703 0)"/>
     <use xlink:href="#ArialMT-69" transform="translate(870.896484 0)"/>
     <use xlink:href="#ArialMT-73" transform="translate(893.113281 0)"/>
     <use xlink:href="#ArialMT-73" transform="translate(943.113281 0)"/>
     <use xlink:href="#ArialMT-69" transform="translate(993.113281 0)"/>
     <use xlink:href="#ArialMT-6f" transform="translate(1015.330078 0)"/>
     <use xlink:href="#ArialMT-6e" transform="translate(1070.945312 0)"/>
     <use xlink:href="#ArialMT-69" transform="translate(1126.560547 0)"/>
     <use xlink:href="#ArialMT-20" transform="translate(1148.777344 0)"/>
     <use xlink:href="#ArialMT-61" transform="translate(1176.560547 0)"/>
     <use xlink:href="#ArialMT-6c" transform="translate(1232.175781 0)"/>
     <use xlink:href="#ArialMT-20" transform="translate(1254.392578 0)"/>
     <use xlink:href="#ArialMT-76" transform="translate(1282.175781 0)"/>
     <use xlink:href="#ArialMT-61" transform="translate(1332.175781 0)"/>
     <use xlink:href="#ArialMT-72" transform="translate(1387.791016 0)"/>
     <use xlink:href="#ArialMT-69" transform="translate(1421.091797 0)"/>
     <use xlink:href="#ArialMT-61" transform="translate(1443.308594 0)"/>
     <use xlink:href="#ArialMT-72" transform="translate(1498.923828 0)"/>
     <use xlink:href="#ArialMT-65" transform="translate(1532.224609 0)"/>
     <use xlink:href="#ArialMT-20" transform="translate(1587.839844 0)"/>
     <use xlink:href="#ArialMT-64" transform="translate(1615.623047 0)"/>
     <use xlink:href="#ArialMT-65" transform="translate(1671.238281 0)"/>
     <use xlink:href="#ArialMT-6c" transform="translate(1726.853516 0)"/>
     <use xlink:href="#ArialMT-6c" transform="translate(1749.070312 0)"/>
     <use xlink:href="#ArialMT-65" transform="translate(1771.287109 0)"/>
     <use xlink:href="#ArialMT-20" transform="translate(1826.902344 0)"/>
     <use xlink:href="#ArialMT-47" transform="translate(1854.685547 0)"/>
     <use xlink:href="#ArialMT-72" transform="translate(1932.46875 0)"/>
     <use xlink:href="#ArialMT-65" transform="translate(1965.769531 0)"/>
     <use xlink:href="#ArialMT-65" transform="translate(2021.384766 0)"/>
     <use xlink:href="#ArialMT-6e" transform="translate(2077 0)"/>
     <use xlink:href="#ArialMT-20" transform="translate(2132.615234 0)"/>
     <use xlink:href="#ArialMT-54" transform="translate(2158.648438 0)"/>
     <use xlink:href="#ArialMT-61" transform="translate(2208.607422 0)"/>
     <use xlink:href="#ArialMT-78" transform="translate(2264.222656 0)"/>
     <use xlink:href="#ArialMT-65" transform="translate(2314.222656 0)"/>
     <use xlink:href="#ArialMT-73" transform="translate(2369.837891 0)"/>
    </g>
   </g>
   <g id="legend_1">
    <g id="patch_7">
     <path d="M 62.4 378.48 
L 152.145 378.48 
Q 154.545 378.48 154.545 376.08 
L 154.545 360.305625 
Q 154.545 357.905625 152.145 357.905625 
L 62.4 357.905625 
Q 60 357.905625 60 360.305625 
L 60 376.08 
Q 60 378.48 62.4 378.48 
z
" style="fill: #ffffff; opacity: 0.8; stroke: #cccccc; stroke-width: 1.5; stroke-linejoin: miter"/>
    </g>
    <g id="line2d_24">
     <path d="M 64.8 367.095 
L 76.8 367.095 
L 88.8 367.095 
" style="fill: none; stroke: #4c72b0; stroke-width: 2; stroke-linecap: round"/>
    </g>
    <g id="text_19">
     <!-- Emissioni -->
     <g style="fill: #262626" transform="translate(98.4 371.295) scale(0.12 -0.12)">
      <use xlink:href="#ArialMT-45"/>
      <use xlink:href="#ArialMT-6d" transform="translate(66.699219 0)"/>
      <use xlink:href="#ArialMT-69" transform="translate(150 0)"/>
      <use xlink:href="#ArialMT-73" transform="translate(172.216797 0)"/>
      <use xlink:href="#ArialMT-73" transform="translate(222.216797 0)"/>
      <use xlink:href="#ArialMT-69" transform="translate(272.216797 0)"/>
      <use xlink:href="#ArialMT-6f" transform="translate(294.433594 0)"/>
      <use xlink:href="#ArialMT-6e" transform="translate(350.048828 0)"/>
      <use xlink:href="#ArialMT-69" transform="translate(405.664062 0)"/>
     </g>
    </g>
   </g>
  </g>
  <g id="axes_2">
   <g id="matplotlib.axis_3">
    <g id="ytick_9">
     <g id="line2d_25">
      <path d="M 54 384.48 
L 388.8 384.48 
" clip-path="url(#pcaa68eccca)" style="fill: none; stroke: #cccccc; stroke-width: 1.5; stroke-linecap: round"/>
     </g>
     <g id="line2d_26">
      <defs>
       <path id="m24ba02c757" d="M 0 0 
L 9 0 
" style="stroke: #262626; stroke-width: 1.875"/>
      </defs>
      <g>
       <use xlink:href="#m24ba02c757" x="388.8" y="384.48" style="fill: #262626; stroke: #262626; stroke-width: 1.875"/>
      </g>
     </g>
     <g id="text_20">
      <!-- 3.0 -->
      <g style="fill: #262626" transform="translate(401.3 387.343125) scale(0.08 -0.08)">
       <use xlink:href="#ArialMT-33"/>
       <use xlink:href="#ArialMT-2e" transform="translate(55.615234 0)"/>
       <use xlink:href="#ArialMT-30" transform="translate(83.398438 0)"/>
      </g>
     </g>
    </g>
    <g id="ytick_10">
     <g id="line2d_27">
      <path d="M 54 342.9 
L 388.8 342.9 
" clip-path="url(#pcaa68eccca)" style="fill: none; stroke: #cccccc; stroke-width: 1.5; stroke-linecap: round"/>
     </g>
     <g id="line2d_28">
      <g>
       <use xlink:href="#m24ba02c757" x="388.8" y="342.9" style="fill: #262626; stroke: #262626; stroke-width: 1.875"/>
      </g>
     </g>
     <g id="text_21">
      <!-- 3.5 -->
      <g style="fill: #262626" transform="translate(401.3 345.763125) scale(0.08 -0.08)">
       <use xlink:href="#ArialMT-33"/>
       <use xlink:href="#ArialMT-2e" transform="translate(55.615234 0)"/>
       <use xlink:href="#ArialMT-35" transform="translate(83.398438 0)"/>
      </g>
     </g>
    </g>
    <g id="ytick_11">
     <g id="line2d_29">
      <path d="M 54 301.32 
L 388.8 301.32 
" clip-path="url(#pcaa68eccca)" style="fill: none; stroke: #cccccc; stroke-width: 1.5; stroke-linecap: round"/>
     </g>
     <g id="line2d_30">
      <g>
       <use xlink:href="#m24ba02c757" x="388.8" y="301.32" style="fill: #262626; stroke: #262626; stroke-width: 1.875"/>
      </g>
     </g>
     <g id="text_22">
      <!-- 4.0 -->
      <g style="fill: #262626" transform="translate(401.3 304.183125) scale(0.08 -0.08)">
       <defs>
        <path id="ArialMT-34" d="M 2069 0 
L 2069 1097 
L 81 1097 
L 81 1613 
L 2172 4581 
L 2631 4581 
L 2631 1613 
L 3250 1613 
L 3250 1097 
L 2631 1097 
L 2631 0 
L 2069 0 
z
M 2069 1613 
L 2069 3678 
L 634 1613 
L 2069 1613 
z
" transform="scale(0.015625)"/>
       </defs>
       <use xlink:href="#ArialMT-34"/>
       <use xlink:href="#ArialMT-2e" transform="translate(55.615234 0)"/>
       <use xlink:href="#ArialMT-30" transform="translate(83.398438 0)"/>
      </g>
     </g>
    </g>
    <g id="ytick_12">
     <g id="line2d_31">
      <path d="M 54 259.74 
L 388.8 259.74 
" clip-path="url(#pcaa68eccca)" style="fill: none; stroke: #cccccc; stroke-width: 1.5; stroke-linecap: round"/>
     </g>
     <g id="line2d_32">
      <g>
       <use xlink:href="#m24ba02c757" x="388.8" y="259.74" style="fill: #262626; stroke: #262626; stroke-width: 1.875"/>
      </g>
     </g>
     <g id="text_23">
      <!-- 4.5 -->
      <g style="fill: #262626" transform="translate(401.3 262.603125) scale(0.08 -0.08)">
       <use xlink:href="#ArialMT-34"/>
       <use xlink:href="#ArialMT-2e" transform="translate(55.615234 0)"/>
       <use xlink:href="#ArialMT-35" transform="translate(83.398438 0)"/>
      </g>
     </g>
    </g>
    <g id="ytick_13">
     <g id="line2d_33">
      <path d="M 54 218.16 
L 388.8 218.16 
" clip-path="url(#pcaa68eccca)" style="fill: none; stroke: #cccccc; stroke-width: 1.5; stroke-linecap: round"/>
     </g>
     <g id="line2d_34">
      <g>
       <use xlink:href="#m24ba02c757" x="388.8" y="218.16" style="fill: #262626; stroke: #262626; stroke-width: 1.875"/>
      </g>
     </g>
     <g id="text_24">
      <!-- 5.0 -->
      <g style="fill: #262626" transform="translate(401.3 221.023125) scale(0.08 -0.08)">
       <use xlink:href="#ArialMT-35"/>
       <use xlink:href="#ArialMT-2e" transform="translate(55.615234 0)"/>
       <use xlink:href="#ArialMT-30" transform="translate(83.398438 0)"/>
      </g>
     </g>
    </g>
    <g id="ytick_14">
     <g id="line2d_35">
      <path d="M 54 176.58 
L 388.8 176.58 
" clip-path="url(#pcaa68eccca)" style="fill: none; stroke: #cccccc; stroke-width: 1.5; stroke-linecap: round"/>
     </g>
     <g id="line2d_36">
      <g>
       <use xlink:href="#m24ba02c757" x="388.8" y="176.58" style="fill: #262626; stroke: #262626; stroke-width: 1.875"/>
      </g>
     </g>
     <g id="text_25">
      <!-- 5.5 -->
      <g style="fill: #262626" transform="translate(401.3 179.443125) scale(0.08 -0.08)">
       <use xlink:href="#ArialMT-35"/>
       <use xlink:href="#ArialMT-2e" transform="translate(55.615234 0)"/>
       <use xlink:href="#ArialMT-35" transform="translate(83.398438 0)"/>
      </g>
     </g>
    </g>
    <g id="ytick_15">
     <g id="line2d_37">
      <path d="M 54 135 
L 388.8 135 
" clip-path="url(#pcaa68eccca)" style="fill: none; stroke: #cccccc; stroke-width: 1.5; stroke-linecap: round"/>
     </g>
     <g id="line2d_38">
      <g>
       <use xlink:href="#m24ba02c757" x="388.8" y="135" style="fill: #262626; stroke: #262626; stroke-width: 1.875"/>
      </g>
     </g>
     <g id="text_26">
      <!-- 6.0 -->
      <g style="fill: #262626" transform="translate(401.3 137.863125) scale(0.08 -0.08)">
       <defs>
        <path id="ArialMT-36" d="M 3184 3459 
L 2625 3416 
Q 2550 3747 2413 3897 
Q 2184 4138 1850 4138 
Q 1581 4138 1378 3988 
Q 1113 3794 959 3422 
Q 806 3050 800 2363 
Q 1003 2672 1297 2822 
Q 1591 2972 1913 2972 
Q 2475 2972 2870 2558 
Q 3266 2144 3266 1488 
Q 3266 1056 3080 686 
Q 2894 316 2569 119 
Q 2244 -78 1831 -78 
Q 1128 -78 684 439 
Q 241 956 241 2144 
Q 241 3472 731 4075 
Q 1159 4600 1884 4600 
Q 2425 4600 2770 4297 
Q 3116 3994 3184 3459 
z
M 888 1484 
Q 888 1194 1011 928 
Q 1134 663 1356 523 
Q 1578 384 1822 384 
Q 2178 384 2434 671 
Q 2691 959 2691 1453 
Q 2691 1928 2437 2201 
Q 2184 2475 1800 2475 
Q 1419 2475 1153 2201 
Q 888 1928 888 1484 
z
" transform="scale(0.015625)"/>
       </defs>
       <use xlink:href="#ArialMT-36"/>
       <use xlink:href="#ArialMT-2e" transform="translate(55.615234 0)"/>
       <use xlink:href="#ArialMT-30" transform="translate(83.398438 0)"/>
      </g>
     </g>
    </g>
    <g id="ytick_16">
     <g id="line2d_39">
      <path d="M 54 93.42 
L 388.8 93.42 
" clip-path="url(#pcaa68eccca)" style="fill: none; stroke: #cccccc; stroke-width: 1.5; stroke-linecap: round"/>
     </g>
     <g id="line2d_40">
      <g>
       <use xlink:href="#m24ba02c757" x="388.8" y="93.42" style="fill: #262626; stroke: #262626; stroke-width: 1.875"/>
      </g>
     </g>
     <g id="text_27">
      <!-- 6.5 -->
      <g style="fill: #262626" transform="translate(401.3 96.283125) scale(0.08 -0.08)">
       <use xlink:href="#ArialMT-36"/>
       <use xlink:href="#ArialMT-2e" transform="translate(55.615234 0)"/>
       <use xlink:href="#ArialMT-35" transform="translate(83.398438 0)"/>
      </g>
     </g>
    </g>
    <g id="ytick_17">
     <g id="line2d_41">
      <path d="M 54 51.84 
L 388.8 51.84 
" clip-path="url(#pcaa68eccca)" style="fill: none; stroke: #cccccc; stroke-width: 1.5; stroke-linecap: round"/>
     </g>
     <g id="line2d_42">
      <g>
       <use xlink:href="#m24ba02c757" x="388.8" y="51.84" style="fill: #262626; stroke: #262626; stroke-width: 1.875"/>
      </g>
     </g>
     <g id="text_28">
      <!-- 7.0 -->
      <g style="fill: #262626" transform="translate(401.3 54.703125) scale(0.08 -0.08)">
       <use xlink:href="#ArialMT-37"/>
       <use xlink:href="#ArialMT-2e" transform="translate(55.615234 0)"/>
       <use xlink:href="#ArialMT-30" transform="translate(83.398438 0)"/>
      </g>
     </g>
    </g>
    <g id="text_29">
     <!-- Percentuale di Green Taxes sul totale -->
     <g style="fill: #262626" transform="translate(426.440938 334.370937) rotate(-90) scale(0.14 -0.14)">
      <defs>
       <path id="ArialMT-50" d="M 494 0 
L 494 4581 
L 2222 4581 
Q 2678 4581 2919 4538 
Q 3256 4481 3484 4323 
Q 3713 4166 3852 3881 
Q 3991 3597 3991 3256 
Q 3991 2672 3619 2267 
Q 3247 1863 2275 1863 
L 1100 1863 
L 1100 0 
L 494 0 
z
M 1100 2403 
L 2284 2403 
Q 2872 2403 3119 2622 
Q 3366 2841 3366 3238 
Q 3366 3525 3220 3729 
Q 3075 3934 2838 4000 
Q 2684 4041 2272 4041 
L 1100 4041 
L 1100 2403 
z
" transform="scale(0.015625)"/>
       <path id="ArialMT-63" d="M 2588 1216 
L 3141 1144 
Q 3050 572 2676 248 
Q 2303 -75 1759 -75 
Q 1078 -75 664 370 
Q 250 816 250 1647 
Q 250 2184 428 2587 
Q 606 2991 970 3192 
Q 1334 3394 1763 3394 
Q 2303 3394 2647 3120 
Q 2991 2847 3088 2344 
L 2541 2259 
Q 2463 2594 2264 2762 
Q 2066 2931 1784 2931 
Q 1359 2931 1093 2626 
Q 828 2322 828 1663 
Q 828 994 1084 691 
Q 1341 388 1753 388 
Q 2084 388 2306 591 
Q 2528 794 2588 1216 
z
" transform="scale(0.015625)"/>
       <path id="ArialMT-74" d="M 1650 503 
L 1731 6 
Q 1494 -44 1306 -44 
Q 1000 -44 831 53 
Q 663 150 594 308 
Q 525 466 525 972 
L 525 2881 
L 113 2881 
L 113 3319 
L 525 3319 
L 525 4141 
L 1084 4478 
L 1084 3319 
L 1650 3319 
L 1650 2881 
L 1084 2881 
L 1084 941 
Q 1084 700 1114 631 
Q 1144 563 1211 522 
Q 1278 481 1403 481 
Q 1497 481 1650 503 
z
" transform="scale(0.015625)"/>
       <path id="ArialMT-75" d="M 2597 0 
L 2597 488 
Q 2209 -75 1544 -75 
Q 1250 -75 995 37 
Q 741 150 617 320 
Q 494 491 444 738 
Q 409 903 409 1263 
L 409 3319 
L 972 3319 
L 972 1478 
Q 972 1038 1006 884 
Q 1059 663 1231 536 
Q 1403 409 1656 409 
Q 1909 409 2131 539 
Q 2353 669 2445 892 
Q 2538 1116 2538 1541 
L 2538 3319 
L 3100 3319 
L 3100 0 
L 2597 0 
z
" transform="scale(0.015625)"/>
      </defs>
      <use xlink:href="#ArialMT-50"/>
      <use xlink:href="#ArialMT-65" transform="translate(66.699219 0)"/>
      <use xlink:href="#ArialMT-72" transform="translate(122.314453 0)"/>
      <use xlink:href="#ArialMT-63" transform="translate(155.615234 0)"/>
      <use xlink:href="#ArialMT-65" transform="translate(205.615234 0)"/>
      <use xlink:href="#ArialMT-6e" transform="translate(261.230469 0)"/>
      <use xlink:href="#ArialMT-74" transform="translate(316.845703 0)"/>
      <use xlink:href="#ArialMT-75" transform="translate(344.628906 0)"/>
      <use xlink:href="#ArialMT-61" transform="translate(400.244141 0)"/>
      <use xlink:href="#ArialMT-6c" transform="translate(455.859375 0)"/>
      <use xlink:href="#ArialMT-65" transform="translate(478.076172 0)"/>
      <use xlink:href="#ArialMT-20" transform="translate(533.691406 0)"/>
      <use xlink:href="#ArialMT-64" transform="translate(561.474609 0)"/>
      <use xlink:href="#ArialMT-69" transform="translate(617.089844 0)"/>
      <use xlink:href="#ArialMT-20" transform="translate(639.306641 0)"/>
      <use xlink:href="#ArialMT-47" transform="translate(667.089844 0)"/>
      <use xlink:href="#ArialMT-72" transform="translate(744.873047 0)"/>
      <use xlink:href="#ArialMT-65" transform="translate(778.173828 0)"/>
      <use xlink:href="#ArialMT-65" transform="translate(833.789062 0)"/>
      <use xlink:href="#ArialMT-6e" transform="translate(889.404297 0)"/>
      <use xlink:href="#ArialMT-20" transform="translate(945.019531 0)"/>
      <use xlink:href="#ArialMT-54" transform="translate(971.052734 0)"/>
      <use xlink:href="#ArialMT-61" transform="translate(1021.011719 0)"/>
      <use xlink:href="#ArialMT-78" transform="translate(1076.626953 0)"/>
      <use xlink:href="#ArialMT-65" transform="translate(1126.626953 0)"/>
      <use xlink:href="#ArialMT-73" transform="translate(1182.242188 0)"/>
      <use xlink:href="#ArialMT-20" transform="translate(1232.242188 0)"/>
      <use xlink:href="#ArialMT-73" transform="translate(1260.025391 0)"/>
      <use xlink:href="#ArialMT-75" transform="translate(1310.025391 0)"/>
      <use xlink:href="#ArialMT-6c" transform="translate(1365.640625 0)"/>
      <use xlink:href="#ArialMT-20" transform="translate(1387.857422 0)"/>
      <use xlink:href="#ArialMT-74" transform="translate(1415.640625 0)"/>
      <use xlink:href="#ArialMT-6f" transform="translate(1443.423828 0)"/>
      <use xlink:href="#ArialMT-74" transform="translate(1499.039062 0)"/>
      <use xlink:href="#ArialMT-61" transform="translate(1526.822266 0)"/>
      <use xlink:href="#ArialMT-6c" transform="translate(1582.4375 0)"/>
      <use xlink:href="#ArialMT-65" transform="translate(1604.654297 0)"/>
     </g>
    </g>
   </g>
   <g id="PathCollection_2">
    <path d="M 69.218182 108.244381 
C 70.062053 108.244381 70.871475 107.909107 71.468182 107.3124 
C 72.064889 106.715693 72.400162 105.906271 72.400162 105.0624 
C 72.400162 104.218529 72.064889 103.409107 71.468182 102.8124 
C 70.871475 102.215693 70.062053 101.880419 69.218182 101.880419 
C 68.374311 101.880419 67.564889 102.215693 66.968182 102.8124 
C 66.371475 103.409107 66.036201 104.218529 66.036201 105.0624 
C 66.036201 105.906271 66.371475 106.715693 66.968182 107.3124 
C 67.564889 107.909107 68.374311 108.244381 69.218182 108.244381 
z
" clip-path="url(#pcaa68eccca)" style="fill: #ff0000; stroke: #ffffff; stroke-width: 0.509117"/>
    <path d="M 80.490909 103.254781 
C 81.33478 103.254781 82.144202 102.919507 82.740909 102.3228 
C 83.337616 101.726093 83.67289 100.916671 83.67289 100.0728 
C 83.67289 99.228929 83.337616 98.419507 82.740909 97.8228 
C 82.144202 97.226093 81.33478 96.890819 80.490909 96.890819 
C 79.647038 96.890819 78.837616 97.226093 78.240909 97.8228 
C 77.644202 98.419507 77.308929 99.228929 77.308929 100.0728 
C 77.308929 100.916671 77.644202 101.726093 78.240909 102.3228 
C 78.837616 102.919507 79.647038 103.254781 80.490909 103.254781 
z
" clip-path="url(#pcaa68eccca)" style="fill: #ff0000; stroke: #ffffff; stroke-width: 0.509117"/>
    <path d="M 91.763636 113.233981 
C 92.607507 113.233981 93.416929 112.898707 94.013636 112.302 
C 94.610343 111.705293 94.945617 110.895871 94.945617 110.052 
C 94.945617 109.208129 94.610343 108.398707 94.013636 107.802 
C 93.416929 107.205293 92.607507 106.870019 91.763636 106.870019 
C 90.919765 106.870019 90.110343 107.205293 89.513636 107.802 
C 88.916929 108.398707 88.581656 109.208129 88.581656 110.052 
C 88.581656 110.895871 88.916929 111.705293 89.513636 112.302 
C 90.110343 112.898707 90.919765 113.233981 91.763636 113.233981 
z
" clip-path="url(#pcaa68eccca)" style="fill: #ff0000; stroke: #ffffff; stroke-width: 0.509117"/>
    <path d="M 103.036364 109.075981 
C 103.880235 109.075981 104.689657 108.740707 105.286364 108.144 
C 105.883071 107.547293 106.218344 106.737871 106.218344 105.894 
C 106.218344 105.050129 105.883071 104.240707 105.286364 103.644 
C 104.689657 103.047293 103.880235 102.712019 103.036364 102.712019 
C 102.192493 102.712019 101.383071 103.047293 100.786364 103.644 
C 100.189657 104.240707 99.854383 105.050129 99.854383 105.894 
C 99.854383 106.737871 100.189657 107.547293 100.786364 108.144 
C 101.383071 108.740707 102.192493 109.075981 103.036364 109.075981 
z
" clip-path="url(#pcaa68eccca)" style="fill: #ff0000; stroke: #ffffff; stroke-width: 0.509117"/>
    <path d="M 114.309091 102.423181 
C 115.152962 102.423181 115.962384 102.087907 116.559091 101.4912 
C 117.155798 100.894493 117.491071 100.085071 117.491071 99.2412 
C 117.491071 98.397329 117.155798 97.587907 116.559091 96.9912 
C 115.962384 96.394493 115.152962 96.059219 114.309091 96.059219 
C 113.46522 96.059219 112.655798 96.394493 112.059091 96.9912 
C 111.462384 97.587907 111.12711 98.397329 111.12711 99.2412 
C 111.12711 100.085071 111.462384 100.894493 112.059091 101.4912 
C 112.655798 102.087907 113.46522 102.423181 114.309091 102.423181 
z
" clip-path="url(#pcaa68eccca)" style="fill: #ff0000; stroke: #ffffff; stroke-width: 0.509117"/>
    <path d="M 125.581818 114.897181 
C 126.425689 114.897181 127.235111 114.561907 127.831818 113.9652 
C 128.428525 113.368493 128.763799 112.559071 128.763799 111.7152 
C 128.763799 110.871329 128.428525 110.061907 127.831818 109.4652 
C 127.235111 108.868493 126.425689 108.533219 125.581818 108.533219 
C 124.737947 108.533219 123.928525 108.868493 123.331818 109.4652 
C 122.735111 110.061907 122.399838 110.871329 122.399838 111.7152 
C 122.399838 112.559071 122.735111 113.368493 123.331818 113.9652 
C 123.928525 114.561907 124.737947 114.897181 125.581818 114.897181 
z
" clip-path="url(#pcaa68eccca)" style="fill: #ff0000; stroke: #ffffff; stroke-width: 0.509117"/>
    <path d="M 136.854545 104.917981 
C 137.698417 104.917981 138.507838 104.582707 139.104545 103.986 
C 139.701252 103.389293 140.036526 102.579871 140.036526 101.736 
C 140.036526 100.892129 139.701252 100.082707 139.104545 99.486 
C 138.507838 98.889293 137.698417 98.554019 136.854545 98.554019 
C 136.010674 98.554019 135.201252 98.889293 134.604545 99.486 
C 134.007838 100.082707 133.672565 100.892129 133.672565 101.736 
C 133.672565 102.579871 134.007838 103.389293 134.604545 103.986 
C 135.201252 104.582707 136.010674 104.917981 136.854545 104.917981 
z
" clip-path="url(#pcaa68eccca)" style="fill: #ff0000; stroke: #ffffff; stroke-width: 0.509117"/>
    <path d="M 148.127273 96.601981 
C 148.971144 96.601981 149.780566 96.266707 150.377273 95.67 
C 150.97398 95.073293 151.309253 94.263871 151.309253 93.42 
C 151.309253 92.576129 150.97398 91.766707 150.377273 91.17 
C 149.780566 90.573293 148.971144 90.238019 148.127273 90.238019 
C 147.283402 90.238019 146.47398 90.573293 145.877273 91.17 
C 145.280566 91.766707 144.945292 92.576129 144.945292 93.42 
C 144.945292 94.263871 145.280566 95.073293 145.877273 95.67 
C 146.47398 96.266707 147.283402 96.601981 148.127273 96.601981 
z
" clip-path="url(#pcaa68eccca)" style="fill: #ff0000; stroke: #ffffff; stroke-width: 0.509117"/>
    <path d="M 159.4 86.622781 
C 160.243871 86.622781 161.053293 86.287507 161.65 85.6908 
C 162.246707 85.094093 162.581981 84.284671 162.581981 83.4408 
C 162.581981 82.596929 162.246707 81.787507 161.65 81.1908 
C 161.053293 80.594093 160.243871 80.258819 159.4 80.258819 
C 158.556129 80.258819 157.746707 80.594093 157.15 81.1908 
C 156.553293 81.787507 156.218019 82.596929 156.218019 83.4408 
C 156.218019 84.284671 156.553293 85.094093 157.15 85.6908 
C 157.746707 86.287507 158.556129 86.622781 159.4 86.622781 
z
" clip-path="url(#pcaa68eccca)" style="fill: #ff0000; stroke: #ffffff; stroke-width: 0.509117"/>
    <path d="M 170.672727 84.959581 
C 171.516598 84.959581 172.32602 84.624307 172.922727 84.0276 
C 173.519434 83.430893 173.854708 82.621471 173.854708 81.7776 
C 173.854708 80.933729 173.519434 80.124307 172.922727 79.5276 
C 172.32602 78.930893 171.516598 78.595619 170.672727 78.595619 
C 169.828856 78.595619 169.019434 78.930893 168.422727 79.5276 
C 167.82602 80.124307 167.490747 80.933729 167.490747 81.7776 
C 167.490747 82.621471 167.82602 83.430893 168.422727 84.0276 
C 169.019434 84.624307 169.828856 84.959581 170.672727 84.959581 
z
" clip-path="url(#pcaa68eccca)" style="fill: #ff0000; stroke: #ffffff; stroke-width: 0.509117"/>
    <path d="M 181.945455 93.275581 
C 182.789326 93.275581 183.598748 92.940307 184.195455 92.3436 
C 184.792162 91.746893 185.127435 90.937471 185.127435 90.0936 
C 185.127435 89.249729 184.792162 88.440307 184.195455 87.8436 
C 183.598748 87.246893 182.789326 86.911619 181.945455 86.911619 
C 181.101583 86.911619 180.292162 87.246893 179.695455 87.8436 
C 179.098748 88.440307 178.763474 89.249729 178.763474 90.0936 
C 178.763474 90.937471 179.098748 91.746893 179.695455 92.3436 
C 180.292162 92.940307 181.101583 93.275581 181.945455 93.275581 
z
" clip-path="url(#pcaa68eccca)" style="fill: #ff0000; stroke: #ffffff; stroke-width: 0.509117"/>
    <path d="M 193.218182 109.075981 
C 194.062053 109.075981 194.871475 108.740707 195.468182 108.144 
C 196.064889 107.547293 196.400162 106.737871 196.400162 105.894 
C 196.400162 105.050129 196.064889 104.240707 195.468182 103.644 
C 194.871475 103.047293 194.062053 102.712019 193.218182 102.712019 
C 192.374311 102.712019 191.564889 103.047293 190.968182 103.644 
C 190.371475 104.240707 190.036201 105.050129 190.036201 105.894 
C 190.036201 106.737871 190.371475 107.547293 190.968182 108.144 
C 191.564889 108.740707 192.374311 109.075981 193.218182 109.075981 
z
" clip-path="url(#pcaa68eccca)" style="fill: #ff0000; stroke: #ffffff; stroke-width: 0.509117"/>
    <path d="M 204.490909 128.202781 
C 205.33478 128.202781 206.144202 127.867507 206.740909 127.2708 
C 207.337616 126.674093 207.67289 125.864671 207.67289 125.0208 
C 207.67289 124.176929 207.337616 123.367507 206.740909 122.7708 
C 206.144202 122.174093 205.33478 121.838819 204.490909 121.838819 
C 203.647038 121.838819 202.837616 122.174093 202.240909 122.7708 
C 201.644202 123.367507 201.308929 124.176929 201.308929 125.0208 
C 201.308929 125.864671 201.644202 126.674093 202.240909 127.2708 
C 202.837616 127.867507 203.647038 128.202781 204.490909 128.202781 
z
" clip-path="url(#pcaa68eccca)" style="fill: #ff0000; stroke: #ffffff; stroke-width: 0.509117"/>
    <path d="M 215.763636 132.360781 
C 216.607507 132.360781 217.416929 132.025507 218.013636 131.4288 
C 218.610343 130.832093 218.945617 130.022671 218.945617 129.1788 
C 218.945617 128.334929 218.610343 127.525507 218.013636 126.9288 
C 217.416929 126.332093 216.607507 125.996819 215.763636 125.996819 
C 214.919765 125.996819 214.110343 126.332093 213.513636 126.9288 
C 212.916929 127.525507 212.581656 128.334929 212.581656 129.1788 
C 212.581656 130.022671 212.916929 130.832093 213.513636 131.4288 
C 214.110343 132.025507 214.919765 132.360781 215.763636 132.360781 
z
" clip-path="url(#pcaa68eccca)" style="fill: #ff0000; stroke: #ffffff; stroke-width: 0.509117"/>
    <path d="M 227.036364 105.749581 
C 227.880235 105.749581 228.689657 105.414307 229.286364 104.8176 
C 229.883071 104.220893 230.218344 103.411471 230.218344 102.5676 
C 230.218344 101.723729 229.883071 100.914307 229.286364 100.3176 
C 228.689657 99.720893 227.880235 99.385619 227.036364 99.385619 
C 226.192493 99.385619 225.383071 99.720893 224.786364 100.3176 
C 224.189657 100.914307 223.854383 101.723729 223.854383 102.5676 
C 223.854383 103.411471 224.189657 104.220893 224.786364 104.8176 
C 225.383071 105.414307 226.192493 105.749581 227.036364 105.749581 
z
" clip-path="url(#pcaa68eccca)" style="fill: #ff0000; stroke: #ffffff; stroke-width: 0.509117"/>
    <path d="M 238.309091 109.907581 
C 239.152962 109.907581 239.962384 109.572307 240.559091 108.9756 
C 241.155798 108.378893 241.491071 107.569471 241.491071 106.7256 
C 241.491071 105.881729 241.155798 105.072307 240.559091 104.4756 
C 239.962384 103.878893 239.152962 103.543619 238.309091 103.543619 
C 237.46522 103.543619 236.655798 103.878893 236.059091 104.4756 
C 235.462384 105.072307 235.12711 105.881729 235.12711 106.7256 
C 235.12711 107.569471 235.462384 108.378893 236.059091 108.9756 
C 236.655798 109.572307 237.46522 109.907581 238.309091 109.907581 
z
" clip-path="url(#pcaa68eccca)" style="fill: #ff0000; stroke: #ffffff; stroke-width: 0.509117"/>
    <path d="M 249.581818 99.096781 
C 250.425689 99.096781 251.235111 98.761507 251.831818 98.1648 
C 252.428525 97.568093 252.763799 96.758671 252.763799 95.9148 
C 252.763799 95.070929 252.428525 94.261507 251.831818 93.6648 
C 251.235111 93.068093 250.425689 92.732819 249.581818 92.732819 
C 248.737947 92.732819 247.928525 93.068093 247.331818 93.6648 
C 246.735111 94.261507 246.399838 95.070929 246.399838 95.9148 
C 246.399838 96.758671 246.735111 97.568093 247.331818 98.1648 
C 247.928525 98.761507 248.737947 99.096781 249.581818 99.096781 
z
" clip-path="url(#pcaa68eccca)" style="fill: #ff0000; stroke: #ffffff; stroke-width: 0.509117"/>
    <path d="M 260.854545 103.254781 
C 261.698417 103.254781 262.507838 102.919507 263.104545 102.3228 
C 263.701252 101.726093 264.036526 100.916671 264.036526 100.0728 
C 264.036526 99.228929 263.701252 98.419507 263.104545 97.8228 
C 262.507838 97.226093 261.698417 96.890819 260.854545 96.890819 
C 260.010674 96.890819 259.201252 97.226093 258.604545 97.8228 
C 258.007838 98.419507 257.672565 99.228929 257.672565 100.0728 
C 257.672565 100.916671 258.007838 101.726093 258.604545 102.3228 
C 259.201252 102.919507 260.010674 103.254781 260.854545 103.254781 
z
" clip-path="url(#pcaa68eccca)" style="fill: #ff0000; stroke: #ffffff; stroke-width: 0.509117"/>
    <path d="M 272.127273 92.443981 
C 272.971144 92.443981 273.780566 92.108707 274.377273 91.512 
C 274.97398 90.915293 275.309253 90.105871 275.309253 89.262 
C 275.309253 88.418129 274.97398 87.608707 274.377273 87.012 
C 273.780566 86.415293 272.971144 86.080019 272.127273 86.080019 
C 271.283402 86.080019 270.47398 86.415293 269.877273 87.012 
C 269.280566 87.608707 268.945292 88.418129 268.945292 89.262 
C 268.945292 90.105871 269.280566 90.915293 269.877273 91.512 
C 270.47398 92.108707 271.283402 92.443981 272.127273 92.443981 
z
" clip-path="url(#pcaa68eccca)" style="fill: #ff0000; stroke: #ffffff; stroke-width: 0.509117"/>
    <path d="M 283.4 85.791181 
C 284.243871 85.791181 285.053293 85.455907 285.65 84.8592 
C 286.246707 84.262493 286.581981 83.453071 286.581981 82.6092 
C 286.581981 81.765329 286.246707 80.955907 285.65 80.3592 
C 285.053293 79.762493 284.243871 79.427219 283.4 79.427219 
C 282.556129 79.427219 281.746707 79.762493 281.15 80.3592 
C 280.553293 80.955907 280.218019 81.765329 280.218019 82.6092 
C 280.218019 83.453071 280.553293 84.262493 281.15 84.8592 
C 281.746707 85.455907 282.556129 85.791181 283.4 85.791181 
z
" clip-path="url(#pcaa68eccca)" style="fill: #ff0000; stroke: #ffffff; stroke-width: 0.509117"/>
    <path d="M 294.672727 91.612381 
C 295.516598 91.612381 296.32602 91.277107 296.922727 90.6804 
C 297.519434 90.083693 297.854708 89.274271 297.854708 88.4304 
C 297.854708 87.586529 297.519434 86.777107 296.922727 86.1804 
C 296.32602 85.583693 295.516598 85.248419 294.672727 85.248419 
C 293.828856 85.248419 293.019434 85.583693 292.422727 86.1804 
C 291.82602 86.777107 291.490747 87.586529 291.490747 88.4304 
C 291.490747 89.274271 291.82602 90.083693 292.422727 90.6804 
C 293.019434 91.277107 293.828856 91.612381 294.672727 91.612381 
z
" clip-path="url(#pcaa68eccca)" style="fill: #ff0000; stroke: #ffffff; stroke-width: 0.509117"/>
    <path d="M 305.945455 88.285981 
C 306.789326 88.285981 307.598748 87.950707 308.195455 87.354 
C 308.792162 86.757293 309.127435 85.947871 309.127435 85.104 
C 309.127435 84.260129 308.792162 83.450707 308.195455 82.854 
C 307.598748 82.257293 306.789326 81.922019 305.945455 81.922019 
C 305.101583 81.922019 304.292162 82.257293 303.695455 82.854 
C 303.098748 83.450707 302.763474 84.260129 302.763474 85.104 
C 302.763474 85.947871 303.098748 86.757293 303.695455 87.354 
C 304.292162 87.950707 305.101583 88.285981 305.945455 88.285981 
z
" clip-path="url(#pcaa68eccca)" style="fill: #ff0000; stroke: #ffffff; stroke-width: 0.509117"/>
    <path d="M 317.218182 99.096781 
C 318.062053 99.096781 318.871475 98.761507 319.468182 98.1648 
C 320.064889 97.568093 320.400162 96.758671 320.400162 95.9148 
C 320.400162 95.070929 320.064889 94.261507 319.468182 93.6648 
C 318.871475 93.068093 318.062053 92.732819 317.218182 92.732819 
C 316.374311 92.732819 315.564889 93.068093 314.968182 93.6648 
C 314.371475 94.261507 314.036201 95.070929 314.036201 95.9148 
C 314.036201 96.758671 314.371475 97.568093 314.968182 98.1648 
C 315.564889 98.761507 316.374311 99.096781 317.218182 99.096781 
z
" clip-path="url(#pcaa68eccca)" style="fill: #ff0000; stroke: #ffffff; stroke-width: 0.509117"/>
    <path d="M 328.490909 109.075981 
C 329.33478 109.075981 330.144202 108.740707 330.740909 108.144 
C 331.337616 107.547293 331.67289 106.737871 331.67289 105.894 
C 331.67289 105.050129 331.337616 104.240707 330.740909 103.644 
C 330.144202 103.047293 329.33478 102.712019 328.490909 102.712019 
C 327.647038 102.712019 326.837616 103.047293 326.240909 103.644 
C 325.644202 104.240707 325.308929 105.050129 325.308929 105.894 
C 325.308929 106.737871 325.644202 107.547293 326.240909 108.144 
C 326.837616 108.740707 327.647038 109.075981 328.490909 109.075981 
z
" clip-path="url(#pcaa68eccca)" style="fill: #ff0000; stroke: #ffffff; stroke-width: 0.509117"/>
    <path d="M 339.763636 115.728781 
C 340.607507 115.728781 341.416929 115.393507 342.013636 114.7968 
C 342.610343 114.200093 342.945617 113.390671 342.945617 112.5468 
C 342.945617 111.702929 342.610343 110.893507 342.013636 110.2968 
C 341.416929 109.700093 340.607507 109.364819 339.763636 109.364819 
C 338.919765 109.364819 338.110343 109.700093 337.513636 110.2968 
C 336.916929 110.893507 336.581656 111.702929 336.581656 112.5468 
C 336.581656 113.390671 336.916929 114.200093 337.513636 114.7968 
C 338.110343 115.393507 338.919765 115.728781 339.763636 115.728781 
z
" clip-path="url(#pcaa68eccca)" style="fill: #ff0000; stroke: #ffffff; stroke-width: 0.509117"/>
    <path d="M 351.036364 138.181981 
C 351.880235 138.181981 352.689657 137.846707 353.286364 137.25 
C 353.883071 136.653293 354.218344 135.843871 354.218344 135 
C 354.218344 134.156129 353.883071 133.346707 353.286364 132.75 
C 352.689657 132.153293 351.880235 131.818019 351.036364 131.818019 
C 350.192493 131.818019 349.383071 132.153293 348.786364 132.75 
C 348.189657 133.346707 347.854383 134.156129 347.854383 135 
C 347.854383 135.843871 348.189657 136.653293 348.786364 137.25 
C 349.383071 137.846707 350.192493 138.181981 351.036364 138.181981 
z
" clip-path="url(#pcaa68eccca)" style="fill: #ff0000; stroke: #ffffff; stroke-width: 0.509117"/>
    <path d="M 362.309091 155.645581 
C 363.152962 155.645581 363.962384 155.310307 364.559091 154.7136 
C 365.155798 154.116893 365.491071 153.307471 365.491071 152.4636 
C 365.491071 151.619729 365.155798 150.810307 364.559091 150.2136 
C 363.962384 149.616893 363.152962 149.281619 362.309091 149.281619 
C 361.46522 149.281619 360.655798 149.616893 360.059091 150.2136 
C 359.462384 150.810307 359.12711 151.619729 359.12711 152.4636 
C 359.12711 153.307471 359.462384 154.116893 360.059091 154.7136 
C 360.655798 155.310307 361.46522 155.645581 362.309091 155.645581 
z
" clip-path="url(#pcaa68eccca)" style="fill: #ff0000; stroke: #ffffff; stroke-width: 0.509117"/>
    <path d="M 373.581818 207.204781 
C 374.425689 207.204781 375.235111 206.869507 375.831818 206.2728 
C 376.428525 205.676093 376.763799 204.866671 376.763799 204.0228 
C 376.763799 203.178929 376.428525 202.369507 375.831818 201.7728 
C 375.235111 201.176093 374.425689 200.840819 373.581818 200.840819 
C 372.737947 200.840819 371.928525 201.176093 371.331818 201.7728 
C 370.735111 202.369507 370.399838 203.178929 370.399838 204.0228 
C 370.399838 204.866671 370.735111 205.676093 371.331818 206.2728 
C 371.928525 206.869507 372.737947 207.204781 373.581818 207.204781 
z
" clip-path="url(#pcaa68eccca)" style="fill: #ff0000; stroke: #ffffff; stroke-width: 0.509117"/>
   </g>
   <g id="line2d_43">
    <path d="M 69.218182 105.0624 
L 80.490909 100.0728 
L 91.763636 110.052 
L 103.036364 105.894 
L 114.309091 99.2412 
L 125.581818 111.7152 
L 136.854545 101.736 
L 148.127273 93.42 
L 159.4 83.4408 
L 170.672727 81.7776 
L 181.945455 90.0936 
L 193.218182 105.894 
L 204.490909 125.0208 
L 215.763636 129.1788 
L 227.036364 102.5676 
L 238.309091 106.7256 
L 249.581818 95.9148 
L 260.854545 100.0728 
L 272.127273 89.262 
L 283.4 82.6092 
L 294.672727 88.4304 
L 305.945455 85.104 
L 317.218182 95.9148 
L 328.490909 105.894 
L 339.763636 112.5468 
L 351.036364 135 
L 362.309091 152.4636 
L 373.581818 204.0228 
" clip-path="url(#pcaa68eccca)" style="fill: none; stroke: #ff0000; stroke-width: 2; stroke-linecap: round"/>
   </g>
   <g id="patch_8">
    <path d="M 54 384.48 
L 54 51.84 
" style="fill: none; stroke: #cccccc; stroke-width: 1.875; stroke-linejoin: miter; stroke-linecap: square"/>
   </g>
   <g id="patch_9">
    <path d="M 388.8 384.48 
L 388.8 51.84 
" style="fill: none; stroke: #cccccc; stroke-width: 1.875; stroke-linejoin: miter; stroke-linecap: square"/>
   </g>
   <g id="patch_10">
    <path d="M 54 384.48 
L 388.8 384.48 
" style="fill: none; stroke: #cccccc; stroke-width: 1.875; stroke-linejoin: miter; stroke-linecap: square"/>
   </g>
   <g id="patch_11">
    <path d="M 54 51.84 
L 388.8 51.84 
" style="fill: none; stroke: #cccccc; stroke-width: 1.875; stroke-linejoin: miter; stroke-linecap: square"/>
   </g>
   <g id="legend_2">
    <g id="patch_12">
     <path d="M 296.865 78.414375 
L 380.4 78.414375 
Q 382.8 78.414375 382.8 76.014375 
L 382.8 60.24 
Q 382.8 57.84 380.4 57.84 
L 296.865 57.84 
Q 294.465 57.84 294.465 60.24 
L 294.465 76.014375 
Q 294.465 78.414375 296.865 78.414375 
z
" style="fill: #ffffff; opacity: 0.8; stroke: #cccccc; stroke-width: 1.5; stroke-linejoin: miter"/>
    </g>
    <g id="line2d_44">
     <path d="M 299.265 67.029375 
L 311.265 67.029375 
L 323.265 67.029375 
" style="fill: none; stroke: #ff0000; stroke-width: 2; stroke-linecap: round"/>
    </g>
    <g id="text_30">
     <!-- % Tasse -->
     <g style="fill: #262626" transform="translate(332.865 71.229375) scale(0.12 -0.12)">
      <defs>
       <path id="ArialMT-25" d="M 372 3481 
Q 372 3972 619 4315 
Q 866 4659 1334 4659 
Q 1766 4659 2048 4351 
Q 2331 4044 2331 3447 
Q 2331 2866 2045 2552 
Q 1759 2238 1341 2238 
Q 925 2238 648 2547 
Q 372 2856 372 3481 
z
M 1350 4272 
Q 1141 4272 1002 4090 
Q 863 3909 863 3425 
Q 863 2984 1003 2804 
Q 1144 2625 1350 2625 
Q 1563 2625 1702 2806 
Q 1841 2988 1841 3469 
Q 1841 3913 1700 4092 
Q 1559 4272 1350 4272 
z
M 1353 -169 
L 3859 4659 
L 4316 4659 
L 1819 -169 
L 1353 -169 
z
M 3334 1075 
Q 3334 1569 3581 1911 
Q 3828 2253 4300 2253 
Q 4731 2253 5014 1945 
Q 5297 1638 5297 1041 
Q 5297 459 5011 145 
Q 4725 -169 4303 -169 
Q 3888 -169 3611 142 
Q 3334 453 3334 1075 
z
M 4316 1866 
Q 4103 1866 3964 1684 
Q 3825 1503 3825 1019 
Q 3825 581 3965 400 
Q 4106 219 4313 219 
Q 4528 219 4667 400 
Q 4806 581 4806 1063 
Q 4806 1506 4665 1686 
Q 4525 1866 4316 1866 
z
" transform="scale(0.015625)"/>
      </defs>
      <use xlink:href="#ArialMT-25"/>
      <use xlink:href="#ArialMT-20" transform="translate(88.916016 0)"/>
      <use xlink:href="#ArialMT-54" transform="translate(114.949219 0)"/>
      <use xlink:href="#ArialMT-61" transform="translate(164.908203 0)"/>
      <use xlink:href="#ArialMT-73" transform="translate(220.523438 0)"/>
      <use xlink:href="#ArialMT-73" transform="translate(270.523438 0)"/>
      <use xlink:href="#ArialMT-65" transform="translate(320.523438 0)"/>
     </g>
    </g>
   </g>
  </g>
  <g id="text_31">
   <g id="patch_13">
    <path d="M 137.930313 76.812187 
L 272.16 76.812187 
Q 275.16 76.812187 275.16 73.812187 
L 275.16 64.427812 
Q 275.16 61.427812 272.16 61.427812 
L 137.930313 61.427812 
Q 134.930313 61.427812 134.930313 64.427812 
L 134.930313 73.812187 
Q 134.930313 76.812187 137.930313 76.812187 
z
" style="fill: #ffffff; opacity: 0.9; stroke: #d9d9d9; stroke-width: 1.5; stroke-linejoin: miter"/>
   </g>
   <!-- Correlazione (Pearson) = 0.28 -->
   <g style="fill: #262626" transform="translate(137.930313 71.7075) scale(0.1 -0.1)">
    <defs>
     <path id="ArialMT-43" d="M 3763 1606 
L 4369 1453 
Q 4178 706 3683 314 
Q 3188 -78 2472 -78 
Q 1731 -78 1267 223 
Q 803 525 561 1097 
Q 319 1669 319 2325 
Q 319 3041 592 3573 
Q 866 4106 1370 4382 
Q 1875 4659 2481 4659 
Q 3169 4659 3637 4309 
Q 4106 3959 4291 3325 
L 3694 3184 
Q 3534 3684 3231 3912 
Q 2928 4141 2469 4141 
Q 1941 4141 1586 3887 
Q 1231 3634 1087 3207 
Q 944 2781 944 2328 
Q 944 1744 1114 1308 
Q 1284 872 1643 656 
Q 2003 441 2422 441 
Q 2931 441 3284 734 
Q 3638 1028 3763 1606 
z
" transform="scale(0.015625)"/>
     <path id="ArialMT-28" d="M 1497 -1347 
Q 1031 -759 709 28 
Q 388 816 388 1659 
Q 388 2403 628 3084 
Q 909 3875 1497 4659 
L 1900 4659 
Q 1522 4009 1400 3731 
Q 1209 3300 1100 2831 
Q 966 2247 966 1656 
Q 966 153 1900 -1347 
L 1497 -1347 
z
" transform="scale(0.015625)"/>
     <path id="ArialMT-29" d="M 791 -1347 
L 388 -1347 
Q 1322 153 1322 1656 
Q 1322 2244 1188 2822 
Q 1081 3291 891 3722 
Q 769 4003 388 4659 
L 791 4659 
Q 1378 3875 1659 3084 
Q 1900 2403 1900 1659 
Q 1900 816 1576 28 
Q 1253 -759 791 -1347 
z
" transform="scale(0.015625)"/>
     <path id="ArialMT-3d" d="M 3381 2694 
L 356 2694 
L 356 3219 
L 3381 3219 
L 3381 2694 
z
M 3381 1303 
L 356 1303 
L 356 1828 
L 3381 1828 
L 3381 1303 
z
" transform="scale(0.015625)"/>
    </defs>
    <use xlink:href="#ArialMT-43"/>
    <use xlink:href="#ArialMT-6f" transform="translate(72.216797 0)"/>
    <use xlink:href="#ArialMT-72" transform="translate(127.832031 0)"/>
    <use xlink:href="#ArialMT-72" transform="translate(161.132812 0)"/>
    <use xlink:href="#ArialMT-65" transform="translate(194.433594 0)"/>
    <use xlink:href="#ArialMT-6c" transform="translate(250.048828 0)"/>
    <use xlink:href="#ArialMT-61" transform="translate(272.265625 0)"/>
    <use xlink:href="#ArialMT-7a" transform="translate(327.880859 0)"/>
    <use xlink:href="#ArialMT-69" transform="translate(377.880859 0)"/>
    <use xlink:href="#ArialMT-6f" transform="translate(400.097656 0)"/>
    <use xlink:href="#ArialMT-6e" transform="translate(455.712891 0)"/>
    <use xlink:href="#ArialMT-65" transform="translate(511.328125 0)"/>
    <use xlink:href="#ArialMT-20" transform="translate(566.943359 0)"/>
    <use xlink:href="#ArialMT-28" transform="translate(594.726562 0)"/>
    <use xlink:href="#ArialMT-50" transform="translate(628.027344 0)"/>
    <use xlink:href="#ArialMT-65" transform="translate(694.726562 0)"/>
    <use xlink:href="#ArialMT-61" transform="translate(750.341797 0)"/>
    <use xlink:href="#ArialMT-72" transform="translate(805.957031 0)"/>
    <use xlink:href="#ArialMT-73" transform="translate(839.257812 0)"/>
    <use xlink:href="#ArialMT-6f" transform="translate(889.257812 0)"/>
    <use xlink:href="#ArialMT-6e" transform="translate(944.873047 0)"/>
    <use xlink:href="#ArialMT-29" transform="translate(1000.488281 0)"/>
    <use xlink:href="#ArialMT-20" transform="translate(1033.789062 0)"/>
    <use xlink:href="#ArialMT-3d" transform="translate(1061.572266 0)"/>
    <use xlink:href="#ArialMT-20" transform="translate(1119.970703 0)"/>
    <use xlink:href="#ArialMT-30" transform="translate(1147.753906 0)"/>
    <use xlink:href="#ArialMT-2e" transform="translate(1203.369141 0)"/>
    <use xlink:href="#ArialMT-32" transform="translate(1231.152344 0)"/>
    <use xlink:href="#ArialMT-38" transform="translate(1286.767578 0)"/>
   </g>
  </g>
 </g>
 <defs>
  <clipPath id="pcaa68eccca">
   <rect x="54" y="51.84" width="334.8" height="332.64"/>
  </clipPath>
 </defs>
</svg>
