<?xml version="1.0" encoding="utf-8" standalone="no"?>
<!DOCTYPE svg PUBLIC "-//W3C//DTD SVG 1.1//EN"
  "http://www.w3.org/Graphics/SVG/1.1/DTD/svg11.dtd">
<svg xmlns:xlink="http://www.w3.org/1999/xlink" width="432pt" height="432pt" viewBox="0 0 432 432" xmlns="http://www.w3.org/2000/svg" version="1.1">
 <metadata>
  <rdf:RDF xmlns:dc="http://purl.org/dc/elements/1.1/" xmlns:cc="http://creativecommons.org/ns#" xmlns:rdf="http://www.w3.org/1999/02/22-rdf-syntax-ns#">
   <cc:Work>
    <dc:type rdf:resource="http://purl.org/dc/dcmitype/StillImage"/>
    <dc:date>2025-08-29T20:04:57.943010</dc:date>
    <dc:format>image/svg+xml</dc:format>
    <dc:creator>
     <cc:Agent>
      <dc:title>Matplotlib v3.10.3, https://matplotlib.org/</dc:title>
     </cc:Agent>
    </dc:creator>
   </cc:Work>
  </rdf:RDF>
 </metadata>
 <defs>
  <style type="text/css">*{stroke-linejoin: round; stroke-linecap: butt}</style>
 </defs>
 <g id="figure_1">
  <g id="patch_1">
   <path d="M 0 432 
L 432 432 
L 432 0 
L 0 0 
z
" style="fill: #ffffff"/>
  </g>
  <g id="axes_1">
   <g id="patch_2">
    <path d="M 75.45 365.1 
L 355.92552 365.1 
L 355.92552 77.51088 
L 75.45 77.51088 
z
" style="fill: #ffffff"/>
   </g>
   <g id="matplotlib.axis_1">
    <g id="xtick_1">
     <g id="line2d_1">
      <path d="M 95.610996 365.1 
L 95.610996 77.51088 
" clip-path="url(#p9152dcffa7)" style="fill: none; stroke: #cccccc; stroke-width: 1.5; stroke-linecap: round"/>
     </g>
     <g id="text_1">
      <!-- −0.25 -->
      <g style="fill: #262626" transform="translate(80.430058 386.189375) scale(0.12 -0.12)">
       <defs>
        <path id="ArialMT-2212" d="M 3381 1997 
L 356 1997 
L 356 2522 
L 3381 2522 
L 3381 1997 
z
" transform="scale(0.015625)"/>
        <path id="ArialMT-30" d="M 266 2259 
Q 266 3072 433 3567 
Q 600 4063 929 4331 
Q 1259 4600 1759 4600 
Q 2128 4600 2406 4451 
Q 2684 4303 2865 4023 
Q 3047 3744 3150 3342 
Q 3253 2941 3253 2259 
Q 3253 1453 3087 958 
Q 2922 463 2592 192 
Q 2263 -78 1759 -78 
Q 1097 -78 719 397 
Q 266 969 266 2259 
z
M 844 2259 
Q 844 1131 1108 757 
Q 1372 384 1759 384 
Q 2147 384 2411 759 
Q 2675 1134 2675 2259 
Q 2675 3391 2411 3762 
Q 2147 4134 1753 4134 
Q 1366 4134 1134 3806 
Q 844 3388 844 2259 
z
" transform="scale(0.015625)"/>
        <path id="ArialMT-2e" d="M 581 0 
L 581 641 
L 1222 641 
L 1222 0 
L 581 0 
z
" transform="scale(0.015625)"/>
        <path id="ArialMT-32" d="M 3222 541 
L 3222 0 
L 194 0 
Q 188 203 259 391 
Q 375 700 629 1000 
Q 884 1300 1366 1694 
Q 2113 2306 2375 2664 
Q 2638 3022 2638 3341 
Q 2638 3675 2398 3904 
Q 2159 4134 1775 4134 
Q 1369 4134 1125 3890 
Q 881 3647 878 3216 
L 300 3275 
Q 359 3922 746 4261 
Q 1134 4600 1788 4600 
Q 2447 4600 2831 4234 
Q 3216 3869 3216 3328 
Q 3216 3053 3103 2787 
Q 2991 2522 2730 2228 
Q 2469 1934 1863 1422 
Q 1356 997 1212 845 
Q 1069 694 975 541 
L 3222 541 
z
" transform="scale(0.015625)"/>
        <path id="ArialMT-35" d="M 266 1200 
L 856 1250 
Q 922 819 1161 601 
Q 1400 384 1738 384 
Q 2144 384 2425 690 
Q 2706 997 2706 1503 
Q 2706 1984 2436 2262 
Q 2166 2541 1728 2541 
Q 1456 2541 1237 2417 
Q 1019 2294 894 2097 
L 366 2166 
L 809 4519 
L 3088 4519 
L 3088 3981 
L 1259 3981 
L 1013 2750 
Q 1425 3038 1878 3038 
Q 2478 3038 2890 2622 
Q 3303 2206 3303 1553 
Q 3303 931 2941 478 
Q 2500 -78 1738 -78 
Q 1113 -78 717 272 
Q 322 622 266 1200 
z
" transform="scale(0.015625)"/>
       </defs>
       <use xlink:href="#ArialMT-2212"/>
       <use xlink:href="#ArialMT-30" transform="translate(58.398438 0)"/>
       <use xlink:href="#ArialMT-2e" transform="translate(114.013672 0)"/>
       <use xlink:href="#ArialMT-32" transform="translate(141.796875 0)"/>
       <use xlink:href="#ArialMT-35" transform="translate(197.412109 0)"/>
      </g>
     </g>
    </g>
    <g id="xtick_2">
     <g id="line2d_2">
      <path d="M 139.118306 365.1 
L 139.118306 77.51088 
" clip-path="url(#p9152dcffa7)" style="fill: none; stroke: #cccccc; stroke-width: 1.5; stroke-linecap: round"/>
     </g>
     <g id="text_2">
      <!-- 0.00 -->
      <g style="fill: #262626" transform="translate(127.441743 386.189375) scale(0.12 -0.12)">
       <use xlink:href="#ArialMT-30"/>
       <use xlink:href="#ArialMT-2e" transform="translate(55.615234 0)"/>
       <use xlink:href="#ArialMT-30" transform="translate(83.398438 0)"/>
       <use xlink:href="#ArialMT-30" transform="translate(139.013672 0)"/>
      </g>
     </g>
    </g>
    <g id="xtick_3">
     <g id="line2d_3">
      <path d="M 182.625616 365.1 
L 182.625616 77.51088 
" clip-path="url(#p9152dcffa7)" style="fill: none; stroke: #cccccc; stroke-width: 1.5; stroke-linecap: round"/>
     </g>
     <g id="text_3">
      <!-- 0.25 -->
      <g style="fill: #262626" transform="translate(170.949054 386.189375) scale(0.12 -0.12)">
       <use xlink:href="#ArialMT-30"/>
       <use xlink:href="#ArialMT-2e" transform="translate(55.615234 0)"/>
       <use xlink:href="#ArialMT-32" transform="translate(83.398438 0)"/>
       <use xlink:href="#ArialMT-35" transform="translate(139.013672 0)"/>
      </g>
     </g>
    </g>
    <g id="xtick_4">
     <g id="line2d_4">
      <path d="M 226.132927 365.1 
L 226.132927 77.51088 
" clip-path="url(#p9152dcffa7)" style="fill: none; stroke: #cccccc; stroke-width: 1.5; stroke-linecap: round"/>
     </g>
     <g id="text_4">
      <!-- 0.50 -->
      <g style="fill: #262626" transform="translate(214.456364 386.189375) scale(0.12 -0.12)">
       <use xlink:href="#ArialMT-30"/>
       <use xlink:href="#ArialMT-2e" transform="translate(55.615234 0)"/>
       <use xlink:href="#ArialMT-35" transform="translate(83.398438 0)"/>
       <use xlink:href="#ArialMT-30" transform="translate(139.013672 0)"/>
      </g>
     </g>
    </g>
    <g id="xtick_5">
     <g id="line2d_5">
      <path d="M 269.640237 365.1 
L 269.640237 77.51088 
" clip-path="url(#p9152dcffa7)" style="fill: none; stroke: #cccccc; stroke-width: 1.5; stroke-linecap: round"/>
     </g>
     <g id="text_5">
      <!-- 0.75 -->
      <g style="fill: #262626" transform="translate(257.963674 386.189375) scale(0.12 -0.12)">
       <defs>
        <path id="ArialMT-37" d="M 303 3981 
L 303 4522 
L 3269 4522 
L 3269 4084 
Q 2831 3619 2401 2847 
Q 1972 2075 1738 1259 
Q 1569 684 1522 0 
L 944 0 
Q 953 541 1156 1306 
Q 1359 2072 1739 2783 
Q 2119 3494 2547 3981 
L 303 3981 
z
" transform="scale(0.015625)"/>
       </defs>
       <use xlink:href="#ArialMT-30"/>
       <use xlink:href="#ArialMT-2e" transform="translate(55.615234 0)"/>
       <use xlink:href="#ArialMT-37" transform="translate(83.398438 0)"/>
       <use xlink:href="#ArialMT-35" transform="translate(139.013672 0)"/>
      </g>
     </g>
    </g>
    <g id="xtick_6">
     <g id="line2d_6">
      <path d="M 313.147547 365.1 
L 313.147547 77.51088 
" clip-path="url(#p9152dcffa7)" style="fill: none; stroke: #cccccc; stroke-width: 1.5; stroke-linecap: round"/>
     </g>
     <g id="text_6">
      <!-- 1.00 -->
      <g style="fill: #262626" transform="translate(301.470985 386.189375) scale(0.12 -0.12)">
       <defs>
        <path id="ArialMT-31" d="M 2384 0 
L 1822 0 
L 1822 3584 
Q 1619 3391 1289 3197 
Q 959 3003 697 2906 
L 697 3450 
Q 1169 3672 1522 3987 
Q 1875 4303 2022 4600 
L 2384 4600 
L 2384 0 
z
" transform="scale(0.015625)"/>
       </defs>
       <use xlink:href="#ArialMT-31"/>
       <use xlink:href="#ArialMT-2e" transform="translate(55.615234 0)"/>
       <use xlink:href="#ArialMT-30" transform="translate(83.398438 0)"/>
       <use xlink:href="#ArialMT-30" transform="translate(139.013672 0)"/>
      </g>
     </g>
    </g>
    <g id="text_7">
     <!-- Tonnellate di sostanze inquinanti emesse nell'atmosfera -->
     <g style="fill: #262626" transform="translate(67.467135 401.31) scale(0.12 -0.12)">
      <defs>
       <path id="ArialMT-54" d="M 1659 0 
L 1659 4041 
L 150 4041 
L 150 4581 
L 3781 4581 
L 3781 4041 
L 2266 4041 
L 2266 0 
L 1659 0 
z
" transform="scale(0.015625)"/>
       <path id="ArialMT-6f" d="M 213 1659 
Q 213 2581 725 3025 
Q 1153 3394 1769 3394 
Q 2453 3394 2887 2945 
Q 3322 2497 3322 1706 
Q 3322 1066 3130 698 
Q 2938 331 2570 128 
Q 2203 -75 1769 -75 
Q 1072 -75 642 372 
Q 213 819 213 1659 
z
M 791 1659 
Q 791 1022 1069 705 
Q 1347 388 1769 388 
Q 2188 388 2466 706 
Q 2744 1025 2744 1678 
Q 2744 2294 2464 2611 
Q 2184 2928 1769 2928 
Q 1347 2928 1069 2612 
Q 791 2297 791 1659 
z
" transform="scale(0.015625)"/>
       <path id="ArialMT-6e" d="M 422 0 
L 422 3319 
L 928 3319 
L 928 2847 
Q 1294 3394 1984 3394 
Q 2284 3394 2536 3286 
Q 2788 3178 2913 3003 
Q 3038 2828 3088 2588 
Q 3119 2431 3119 2041 
L 3119 0 
L 2556 0 
L 2556 2019 
Q 2556 2363 2490 2533 
Q 2425 2703 2258 2804 
Q 2091 2906 1866 2906 
Q 1506 2906 1245 2678 
Q 984 2450 984 1813 
L 984 0 
L 422 0 
z
" transform="scale(0.015625)"/>
       <path id="ArialMT-65" d="M 2694 1069 
L 3275 997 
Q 3138 488 2766 206 
Q 2394 -75 1816 -75 
Q 1088 -75 661 373 
Q 234 822 234 1631 
Q 234 2469 665 2931 
Q 1097 3394 1784 3394 
Q 2450 3394 2872 2941 
Q 3294 2488 3294 1666 
Q 3294 1616 3291 1516 
L 816 1516 
Q 847 969 1125 678 
Q 1403 388 1819 388 
Q 2128 388 2347 550 
Q 2566 713 2694 1069 
z
M 847 1978 
L 2700 1978 
Q 2663 2397 2488 2606 
Q 2219 2931 1791 2931 
Q 1403 2931 1139 2672 
Q 875 2413 847 1978 
z
" transform="scale(0.015625)"/>
       <path id="ArialMT-6c" d="M 409 0 
L 409 4581 
L 972 4581 
L 972 0 
L 409 0 
z
" transform="scale(0.015625)"/>
       <path id="ArialMT-61" d="M 2588 409 
Q 2275 144 1986 34 
Q 1697 -75 1366 -75 
Q 819 -75 525 192 
Q 231 459 231 875 
Q 231 1119 342 1320 
Q 453 1522 633 1644 
Q 813 1766 1038 1828 
Q 1203 1872 1538 1913 
Q 2219 1994 2541 2106 
Q 2544 2222 2544 2253 
Q 2544 2597 2384 2738 
Q 2169 2928 1744 2928 
Q 1347 2928 1158 2789 
Q 969 2650 878 2297 
L 328 2372 
Q 403 2725 575 2942 
Q 747 3159 1072 3276 
Q 1397 3394 1825 3394 
Q 2250 3394 2515 3294 
Q 2781 3194 2906 3042 
Q 3031 2891 3081 2659 
Q 3109 2516 3109 2141 
L 3109 1391 
Q 3109 606 3145 398 
Q 3181 191 3288 0 
L 2700 0 
Q 2613 175 2588 409 
z
M 2541 1666 
Q 2234 1541 1622 1453 
Q 1275 1403 1131 1340 
Q 988 1278 909 1158 
Q 831 1038 831 891 
Q 831 666 1001 516 
Q 1172 366 1500 366 
Q 1825 366 2078 508 
Q 2331 650 2450 897 
Q 2541 1088 2541 1459 
L 2541 1666 
z
" transform="scale(0.015625)"/>
       <path id="ArialMT-74" d="M 1650 503 
L 1731 6 
Q 1494 -44 1306 -44 
Q 1000 -44 831 53 
Q 663 150 594 308 
Q 525 466 525 972 
L 525 2881 
L 113 2881 
L 113 3319 
L 525 3319 
L 525 4141 
L 1084 4478 
L 1084 3319 
L 1650 3319 
L 1650 2881 
L 1084 2881 
L 1084 941 
Q 1084 700 1114 631 
Q 1144 563 1211 522 
Q 1278 481 1403 481 
Q 1497 481 1650 503 
z
" transform="scale(0.015625)"/>
       <path id="ArialMT-20" transform="scale(0.015625)"/>
       <path id="ArialMT-64" d="M 2575 0 
L 2575 419 
Q 2259 -75 1647 -75 
Q 1250 -75 917 144 
Q 584 363 401 755 
Q 219 1147 219 1656 
Q 219 2153 384 2558 
Q 550 2963 881 3178 
Q 1213 3394 1622 3394 
Q 1922 3394 2156 3267 
Q 2391 3141 2538 2938 
L 2538 4581 
L 3097 4581 
L 3097 0 
L 2575 0 
z
M 797 1656 
Q 797 1019 1065 703 
Q 1334 388 1700 388 
Q 2069 388 2326 689 
Q 2584 991 2584 1609 
Q 2584 2291 2321 2609 
Q 2059 2928 1675 2928 
Q 1300 2928 1048 2622 
Q 797 2316 797 1656 
z
" transform="scale(0.015625)"/>
       <path id="ArialMT-69" d="M 425 3934 
L 425 4581 
L 988 4581 
L 988 3934 
L 425 3934 
z
M 425 0 
L 425 3319 
L 988 3319 
L 988 0 
L 425 0 
z
" transform="scale(0.015625)"/>
       <path id="ArialMT-73" d="M 197 991 
L 753 1078 
Q 800 744 1014 566 
Q 1228 388 1613 388 
Q 2000 388 2187 545 
Q 2375 703 2375 916 
Q 2375 1106 2209 1216 
Q 2094 1291 1634 1406 
Q 1016 1563 777 1677 
Q 538 1791 414 1992 
Q 291 2194 291 2438 
Q 291 2659 392 2848 
Q 494 3038 669 3163 
Q 800 3259 1026 3326 
Q 1253 3394 1513 3394 
Q 1903 3394 2198 3281 
Q 2494 3169 2634 2976 
Q 2775 2784 2828 2463 
L 2278 2388 
Q 2241 2644 2061 2787 
Q 1881 2931 1553 2931 
Q 1166 2931 1000 2803 
Q 834 2675 834 2503 
Q 834 2394 903 2306 
Q 972 2216 1119 2156 
Q 1203 2125 1616 2013 
Q 2213 1853 2448 1751 
Q 2684 1650 2818 1456 
Q 2953 1263 2953 975 
Q 2953 694 2789 445 
Q 2625 197 2315 61 
Q 2006 -75 1616 -75 
Q 969 -75 630 194 
Q 291 463 197 991 
z
" transform="scale(0.015625)"/>
       <path id="ArialMT-7a" d="M 125 0 
L 125 456 
L 2238 2881 
Q 1878 2863 1603 2863 
L 250 2863 
L 250 3319 
L 2963 3319 
L 2963 2947 
L 1166 841 
L 819 456 
Q 1197 484 1528 484 
L 3063 484 
L 3063 0 
L 125 0 
z
" transform="scale(0.015625)"/>
       <path id="ArialMT-71" d="M 2538 -1272 
L 2538 353 
Q 2406 169 2170 47 
Q 1934 -75 1669 -75 
Q 1078 -75 651 397 
Q 225 869 225 1691 
Q 225 2191 398 2587 
Q 572 2984 901 3189 
Q 1231 3394 1625 3394 
Q 2241 3394 2594 2875 
L 2594 3319 
L 3100 3319 
L 3100 -1272 
L 2538 -1272 
z
M 803 1669 
Q 803 1028 1072 708 
Q 1341 388 1716 388 
Q 2075 388 2334 692 
Q 2594 997 2594 1619 
Q 2594 2281 2320 2615 
Q 2047 2950 1678 2950 
Q 1313 2950 1058 2639 
Q 803 2328 803 1669 
z
" transform="scale(0.015625)"/>
       <path id="ArialMT-75" d="M 2597 0 
L 2597 488 
Q 2209 -75 1544 -75 
Q 1250 -75 995 37 
Q 741 150 617 320 
Q 494 491 444 738 
Q 409 903 409 1263 
L 409 3319 
L 972 3319 
L 972 1478 
Q 972 1038 1006 884 
Q 1059 663 1231 536 
Q 1403 409 1656 409 
Q 1909 409 2131 539 
Q 2353 669 2445 892 
Q 2538 1116 2538 1541 
L 2538 3319 
L 3100 3319 
L 3100 0 
L 2597 0 
z
" transform="scale(0.015625)"/>
       <path id="ArialMT-6d" d="M 422 0 
L 422 3319 
L 925 3319 
L 925 2853 
Q 1081 3097 1340 3245 
Q 1600 3394 1931 3394 
Q 2300 3394 2536 3241 
Q 2772 3088 2869 2813 
Q 3263 3394 3894 3394 
Q 4388 3394 4653 3120 
Q 4919 2847 4919 2278 
L 4919 0 
L 4359 0 
L 4359 2091 
Q 4359 2428 4304 2576 
Q 4250 2725 4106 2815 
Q 3963 2906 3769 2906 
Q 3419 2906 3187 2673 
Q 2956 2441 2956 1928 
L 2956 0 
L 2394 0 
L 2394 2156 
Q 2394 2531 2256 2718 
Q 2119 2906 1806 2906 
Q 1569 2906 1367 2781 
Q 1166 2656 1075 2415 
Q 984 2175 984 1722 
L 984 0 
L 422 0 
z
" transform="scale(0.015625)"/>
       <path id="ArialMT-27" d="M 425 2959 
L 281 3816 
L 281 4581 
L 922 4581 
L 922 3816 
L 772 2959 
L 425 2959 
z
" transform="scale(0.015625)"/>
       <path id="ArialMT-66" d="M 556 0 
L 556 2881 
L 59 2881 
L 59 3319 
L 556 3319 
L 556 3672 
Q 556 4006 616 4169 
Q 697 4388 901 4523 
Q 1106 4659 1475 4659 
Q 1713 4659 2000 4603 
L 1916 4113 
Q 1741 4144 1584 4144 
Q 1328 4144 1222 4034 
Q 1116 3925 1116 3625 
L 1116 3319 
L 1763 3319 
L 1763 2881 
L 1116 2881 
L 1116 0 
L 556 0 
z
" transform="scale(0.015625)"/>
       <path id="ArialMT-72" d="M 416 0 
L 416 3319 
L 922 3319 
L 922 2816 
Q 1116 3169 1280 3281 
Q 1444 3394 1641 3394 
Q 1925 3394 2219 3213 
L 2025 2691 
Q 1819 2813 1613 2813 
Q 1428 2813 1281 2702 
Q 1134 2591 1072 2394 
Q 978 2094 978 1738 
L 978 0 
L 416 0 
z
" transform="scale(0.015625)"/>
      </defs>
      <use xlink:href="#ArialMT-54"/>
      <use xlink:href="#ArialMT-6f" transform="translate(49.958984 0)"/>
      <use xlink:href="#ArialMT-6e" transform="translate(105.574219 0)"/>
      <use xlink:href="#ArialMT-6e" transform="translate(161.189453 0)"/>
      <use xlink:href="#ArialMT-65" transform="translate(216.804688 0)"/>
      <use xlink:href="#ArialMT-6c" transform="translate(272.419922 0)"/>
      <use xlink:href="#ArialMT-6c" transform="translate(294.636719 0)"/>
      <use xlink:href="#ArialMT-61" transform="translate(316.853516 0)"/>
      <use xlink:href="#ArialMT-74" transform="translate(372.46875 0)"/>
      <use xlink:href="#ArialMT-65" transform="translate(400.251953 0)"/>
      <use xlink:href="#ArialMT-20" transform="translate(455.867188 0)"/>
      <use xlink:href="#ArialMT-64" transform="translate(483.650391 0)"/>
      <use xlink:href="#ArialMT-69" transform="translate(539.265625 0)"/>
      <use xlink:href="#ArialMT-20" transform="translate(561.482422 0)"/>
      <use xlink:href="#ArialMT-73" transform="translate(589.265625 0)"/>
      <use xlink:href="#ArialMT-6f" transform="translate(639.265625 0)"/>
      <use xlink:href="#ArialMT-73" transform="translate(694.880859 0)"/>
      <use xlink:href="#ArialMT-74" transform="translate(744.880859 0)"/>
      <use xlink:href="#ArialMT-61" transform="translate(772.664062 0)"/>
      <use xlink:href="#ArialMT-6e" transform="translate(828.279297 0)"/>
      <use xlink:href="#ArialMT-7a" transform="translate(883.894531 0)"/>
      <use xlink:href="#ArialMT-65" transform="translate(933.894531 0)"/>
      <use xlink:href="#ArialMT-20" transform="translate(989.509766 0)"/>
      <use xlink:href="#ArialMT-69" transform="translate(1017.292969 0)"/>
      <use xlink:href="#ArialMT-6e" transform="translate(1039.509766 0)"/>
      <use xlink:href="#ArialMT-71" transform="translate(1095.125 0)"/>
      <use xlink:href="#ArialMT-75" transform="translate(1150.740234 0)"/>
      <use xlink:href="#ArialMT-69" transform="translate(1206.355469 0)"/>
      <use xlink:href="#ArialMT-6e" transform="translate(1228.572266 0)"/>
      <use xlink:href="#ArialMT-61" transform="translate(1284.1875 0)"/>
      <use xlink:href="#ArialMT-6e" transform="translate(1339.802734 0)"/>
      <use xlink:href="#ArialMT-74" transform="translate(1395.417969 0)"/>
      <use xlink:href="#ArialMT-69" transform="translate(1423.201172 0)"/>
      <use xlink:href="#ArialMT-20" transform="translate(1445.417969 0)"/>
      <use xlink:href="#ArialMT-65" transform="translate(1473.201172 0)"/>
      <use xlink:href="#ArialMT-6d" transform="translate(1528.816406 0)"/>
      <use xlink:href="#ArialMT-65" transform="translate(1612.117188 0)"/>
      <use xlink:href="#ArialMT-73" transform="translate(1667.732422 0)"/>
      <use xlink:href="#ArialMT-73" transform="translate(1717.732422 0)"/>
      <use xlink:href="#ArialMT-65" transform="translate(1767.732422 0)"/>
      <use xlink:href="#ArialMT-20" transform="translate(1823.347656 0)"/>
      <use xlink:href="#ArialMT-6e" transform="translate(1851.130859 0)"/>
      <use xlink:href="#ArialMT-65" transform="translate(1906.746094 0)"/>
      <use xlink:href="#ArialMT-6c" transform="translate(1962.361328 0)"/>
      <use xlink:href="#ArialMT-6c" transform="translate(1984.578125 0)"/>
      <use xlink:href="#ArialMT-27" transform="translate(2006.794922 0)"/>
      <use xlink:href="#ArialMT-61" transform="translate(2025.886719 0)"/>
      <use xlink:href="#ArialMT-74" transform="translate(2081.501953 0)"/>
      <use xlink:href="#ArialMT-6d" transform="translate(2109.285156 0)"/>
      <use xlink:href="#ArialMT-6f" transform="translate(2192.585938 0)"/>
      <use xlink:href="#ArialMT-73" transform="translate(2248.201172 0)"/>
      <use xlink:href="#ArialMT-66" transform="translate(2298.201172 0)"/>
      <use xlink:href="#ArialMT-65" transform="translate(2325.984375 0)"/>
      <use xlink:href="#ArialMT-72" transform="translate(2381.599609 0)"/>
      <use xlink:href="#ArialMT-61" transform="translate(2414.900391 0)"/>
     </g>
    </g>
   </g>
   <g id="matplotlib.axis_2">
    <g id="ytick_1">
     <g id="line2d_7">
      <path d="M 75.45 335.135692 
L 355.92552 335.135692 
" clip-path="url(#p9152dcffa7)" style="fill: none; stroke: #cccccc; stroke-width: 1.5; stroke-linecap: round"/>
     </g>
     <g id="text_8">
      <!-- −0.25 -->
      <g style="fill: #262626" transform="translate(32.588125 339.43038) scale(0.12 -0.12)">
       <use xlink:href="#ArialMT-2212"/>
       <use xlink:href="#ArialMT-30" transform="translate(58.398438 0)"/>
       <use xlink:href="#ArialMT-2e" transform="translate(114.013672 0)"/>
       <use xlink:href="#ArialMT-32" transform="translate(141.796875 0)"/>
       <use xlink:href="#ArialMT-35" transform="translate(197.412109 0)"/>
      </g>
     </g>
    </g>
    <g id="ytick_2">
     <g id="line2d_8">
      <path d="M 75.45 296.295861 
L 355.92552 296.295861 
" clip-path="url(#p9152dcffa7)" style="fill: none; stroke: #cccccc; stroke-width: 1.5; stroke-linecap: round"/>
     </g>
     <g id="text_9">
      <!-- 0.00 -->
      <g style="fill: #262626" transform="translate(39.596875 300.590549) scale(0.12 -0.12)">
       <use xlink:href="#ArialMT-30"/>
       <use xlink:href="#ArialMT-2e" transform="translate(55.615234 0)"/>
       <use xlink:href="#ArialMT-30" transform="translate(83.398438 0)"/>
       <use xlink:href="#ArialMT-30" transform="translate(139.013672 0)"/>
      </g>
     </g>
    </g>
    <g id="ytick_3">
     <g id="line2d_9">
      <path d="M 75.45 257.45603 
L 355.92552 257.45603 
" clip-path="url(#p9152dcffa7)" style="fill: none; stroke: #cccccc; stroke-width: 1.5; stroke-linecap: round"/>
     </g>
     <g id="text_10">
      <!-- 0.25 -->
      <g style="fill: #262626" transform="translate(39.596875 261.750717) scale(0.12 -0.12)">
       <use xlink:href="#ArialMT-30"/>
       <use xlink:href="#ArialMT-2e" transform="translate(55.615234 0)"/>
       <use xlink:href="#ArialMT-32" transform="translate(83.398438 0)"/>
       <use xlink:href="#ArialMT-35" transform="translate(139.013672 0)"/>
      </g>
     </g>
    </g>
    <g id="ytick_4">
     <g id="line2d_10">
      <path d="M 75.45 218.616199 
L 355.92552 218.616199 
" clip-path="url(#p9152dcffa7)" style="fill: none; stroke: #cccccc; stroke-width: 1.5; stroke-linecap: round"/>
     </g>
     <g id="text_11">
      <!-- 0.50 -->
      <g style="fill: #262626" transform="translate(39.596875 222.910886) scale(0.12 -0.12)">
       <use xlink:href="#ArialMT-30"/>
       <use xlink:href="#ArialMT-2e" transform="translate(55.615234 0)"/>
       <use xlink:href="#ArialMT-35" transform="translate(83.398438 0)"/>
       <use xlink:href="#ArialMT-30" transform="translate(139.013672 0)"/>
      </g>
     </g>
    </g>
    <g id="ytick_5">
     <g id="line2d_11">
      <path d="M 75.45 179.776368 
L 355.92552 179.776368 
" clip-path="url(#p9152dcffa7)" style="fill: none; stroke: #cccccc; stroke-width: 1.5; stroke-linecap: round"/>
     </g>
     <g id="text_12">
      <!-- 0.75 -->
      <g style="fill: #262626" transform="translate(39.596875 184.071055) scale(0.12 -0.12)">
       <use xlink:href="#ArialMT-30"/>
       <use xlink:href="#ArialMT-2e" transform="translate(55.615234 0)"/>
       <use xlink:href="#ArialMT-37" transform="translate(83.398438 0)"/>
       <use xlink:href="#ArialMT-35" transform="translate(139.013672 0)"/>
      </g>
     </g>
    </g>
    <g id="ytick_6">
     <g id="line2d_12">
      <path d="M 75.45 140.936537 
L 355.92552 140.936537 
" clip-path="url(#p9152dcffa7)" style="fill: none; stroke: #cccccc; stroke-width: 1.5; stroke-linecap: round"/>
     </g>
     <g id="text_13">
      <!-- 1.00 -->
      <g style="fill: #262626" transform="translate(39.596875 145.231224) scale(0.12 -0.12)">
       <use xlink:href="#ArialMT-31"/>
       <use xlink:href="#ArialMT-2e" transform="translate(55.615234 0)"/>
       <use xlink:href="#ArialMT-30" transform="translate(83.398438 0)"/>
       <use xlink:href="#ArialMT-30" transform="translate(139.013672 0)"/>
      </g>
     </g>
    </g>
    <g id="ytick_7">
     <g id="line2d_13">
      <path d="M 75.45 102.096706 
L 355.92552 102.096706 
" clip-path="url(#p9152dcffa7)" style="fill: none; stroke: #cccccc; stroke-width: 1.5; stroke-linecap: round"/>
     </g>
     <g id="text_14">
      <!-- 1.25 -->
      <g style="fill: #262626" transform="translate(39.596875 106.391393) scale(0.12 -0.12)">
       <use xlink:href="#ArialMT-31"/>
       <use xlink:href="#ArialMT-2e" transform="translate(55.615234 0)"/>
       <use xlink:href="#ArialMT-32" transform="translate(83.398438 0)"/>
       <use xlink:href="#ArialMT-35" transform="translate(139.013672 0)"/>
      </g>
     </g>
    </g>
    <g id="text_15">
     <!-- Area dello stato -->
     <g style="fill: #262626" transform="translate(26.203125 262.995127) rotate(-90) scale(0.12 -0.12)">
      <defs>
       <path id="ArialMT-41" d="M -9 0 
L 1750 4581 
L 2403 4581 
L 4278 0 
L 3588 0 
L 3053 1388 
L 1138 1388 
L 634 0 
L -9 0 
z
M 1313 1881 
L 2866 1881 
L 2388 3150 
Q 2169 3728 2063 4100 
Q 1975 3659 1816 3225 
L 1313 1881 
z
" transform="scale(0.015625)"/>
      </defs>
      <use xlink:href="#ArialMT-41"/>
      <use xlink:href="#ArialMT-72" transform="translate(66.699219 0)"/>
      <use xlink:href="#ArialMT-65" transform="translate(100 0)"/>
      <use xlink:href="#ArialMT-61" transform="translate(155.615234 0)"/>
      <use xlink:href="#ArialMT-20" transform="translate(211.230469 0)"/>
      <use xlink:href="#ArialMT-64" transform="translate(239.013672 0)"/>
      <use xlink:href="#ArialMT-65" transform="translate(294.628906 0)"/>
      <use xlink:href="#ArialMT-6c" transform="translate(350.244141 0)"/>
      <use xlink:href="#ArialMT-6c" transform="translate(372.460938 0)"/>
      <use xlink:href="#ArialMT-6f" transform="translate(394.677734 0)"/>
      <use xlink:href="#ArialMT-20" transform="translate(450.292969 0)"/>
      <use xlink:href="#ArialMT-73" transform="translate(478.076172 0)"/>
      <use xlink:href="#ArialMT-74" transform="translate(528.076172 0)"/>
      <use xlink:href="#ArialMT-61" transform="translate(555.859375 0)"/>
      <use xlink:href="#ArialMT-74" transform="translate(611.474609 0)"/>
      <use xlink:href="#ArialMT-6f" transform="translate(639.257812 0)"/>
     </g>
    </g>
   </g>
   <g id="PathCollection_1">
    <defs>
     <path id="C0_0_f6a4f27707" d="M 0 3.535534 
C 0.937635 3.535534 1.836992 3.163008 2.5 2.5 
C 3.163008 1.836992 3.535534 0.937635 3.535534 -0 
C 3.535534 -0.937635 3.163008 -1.836992 2.5 -2.5 
C 1.836992 -3.163008 0.937635 -3.535534 0 -3.535534 
C -0.937635 -3.535534 -1.836992 -3.163008 -2.5 -2.5 
C -3.163008 -1.836992 -3.535534 -0.937635 -3.535534 0 
C -3.535534 0.937635 -3.163008 1.836992 -2.5 2.5 
C -1.836992 3.163008 -0.937635 3.535534 0 3.535534 
z
"/>
    </defs>
    <g clip-path="url(#p9152dcffa7)">
     <use xlink:href="#C0_0_f6a4f27707" x="151.705675" y="283.198994" style="fill: #4c72b0; fill-opacity: 0.5"/>
    </g>
    <g clip-path="url(#p9152dcffa7)">
     <use xlink:href="#C0_0_f6a4f27707" x="159.270532" y="291.578356" style="fill: #4c72b0; fill-opacity: 0.5"/>
    </g>
    <g clip-path="url(#p9152dcffa7)">
     <use xlink:href="#C0_0_f6a4f27707" x="149.169593" y="278.210702" style="fill: #4c72b0; fill-opacity: 0.5"/>
    </g>
    <g clip-path="url(#p9152dcffa7)">
     <use xlink:href="#C0_0_f6a4f27707" x="148.074989" y="290.05344" style="fill: #4c72b0; fill-opacity: 0.5"/>
    </g>
    <g clip-path="url(#p9152dcffa7)">
     <use xlink:href="#C0_0_f6a4f27707" x="140.635532" y="294.665552" style="fill: #4c72b0; fill-opacity: 0.5"/>
    </g>
    <g clip-path="url(#p9152dcffa7)">
     <use xlink:href="#C0_0_f6a4f27707" x="159.217973" y="283.708734" style="fill: #4c72b0; fill-opacity: 0.5"/>
    </g>
    <g clip-path="url(#p9152dcffa7)">
     <use xlink:href="#C0_0_f6a4f27707" x="291.769144" y="241.286387" style="fill: #4c72b0; fill-opacity: 0.5"/>
    </g>
    <g clip-path="url(#p9152dcffa7)">
     <use xlink:href="#C0_0_f6a4f27707" x="154.840024" y="289.892546" style="fill: #4c72b0; fill-opacity: 0.5"/>
    </g>
    <g clip-path="url(#p9152dcffa7)">
     <use xlink:href="#C0_0_f6a4f27707" x="142.255349" y="289.052805" style="fill: #4c72b0; fill-opacity: 0.5"/>
    </g>
    <g clip-path="url(#p9152dcffa7)">
     <use xlink:href="#C0_0_f6a4f27707" x="156.535807" y="275.142186" style="fill: #4c72b0; fill-opacity: 0.5"/>
    </g>
    <g clip-path="url(#p9152dcffa7)">
     <use xlink:href="#C0_0_f6a4f27707" x="194.922354" y="215.099546" style="fill: #4c72b0; fill-opacity: 0.5"/>
    </g>
    <g clip-path="url(#p9152dcffa7)">
     <use xlink:href="#C0_0_f6a4f27707" x="148.88353" y="242.148294" style="fill: #4c72b0; fill-opacity: 0.5"/>
    </g>
    <g clip-path="url(#p9152dcffa7)">
     <use xlink:href="#C0_0_f6a4f27707" x="218.60415" y="146.358173" style="fill: #4c72b0; fill-opacity: 0.5"/>
    </g>
    <g clip-path="url(#p9152dcffa7)">
     <use xlink:href="#C0_0_f6a4f27707" x="143.468804" y="287.167364" style="fill: #4c72b0; fill-opacity: 0.5"/>
    </g>
    <g clip-path="url(#p9152dcffa7)">
     <use xlink:href="#C0_0_f6a4f27707" x="150.892682" y="281.712066" style="fill: #4c72b0; fill-opacity: 0.5"/>
    </g>
    <g clip-path="url(#p9152dcffa7)">
     <use xlink:href="#C0_0_f6a4f27707" x="151.838455" y="285.009178" style="fill: #4c72b0; fill-opacity: 0.5"/>
    </g>
    <g clip-path="url(#p9152dcffa7)">
     <use xlink:href="#C0_0_f6a4f27707" x="140.250161" y="280.315168" style="fill: #4c72b0; fill-opacity: 0.5"/>
    </g>
    <g clip-path="url(#p9152dcffa7)">
     <use xlink:href="#C0_0_f6a4f27707" x="214.737354" y="249.713426" style="fill: #4c72b0; fill-opacity: 0.5"/>
    </g>
    <g clip-path="url(#p9152dcffa7)">
     <use xlink:href="#C0_0_f6a4f27707" x="143.43316" y="286.025078" style="fill: #4c72b0; fill-opacity: 0.5"/>
    </g>
    <g clip-path="url(#p9152dcffa7)">
     <use xlink:href="#C0_0_f6a4f27707" x="140.856274" y="295.880688" style="fill: #4c72b0; fill-opacity: 0.5"/>
    </g>
    <g clip-path="url(#p9152dcffa7)">
     <use xlink:href="#C0_0_f6a4f27707" x="141.28192" y="286.133353" style="fill: #4c72b0; fill-opacity: 0.5"/>
    </g>
    <g clip-path="url(#p9152dcffa7)">
     <use xlink:href="#C0_0_f6a4f27707" x="139.606376" y="296.252707" style="fill: #4c72b0; fill-opacity: 0.5"/>
    </g>
    <g clip-path="url(#p9152dcffa7)">
     <use xlink:href="#C0_0_f6a4f27707" x="173.923306" y="290.659932" style="fill: #4c72b0; fill-opacity: 0.5"/>
    </g>
    <g clip-path="url(#p9152dcffa7)">
     <use xlink:href="#C0_0_f6a4f27707" x="151.000944" y="242.772241" style="fill: #4c72b0; fill-opacity: 0.5"/>
    </g>
    <g clip-path="url(#p9152dcffa7)">
     <use xlink:href="#C0_0_f6a4f27707" x="209.83915" y="247.278977" style="fill: #4c72b0; fill-opacity: 0.5"/>
    </g>
    <g clip-path="url(#p9152dcffa7)">
     <use xlink:href="#C0_0_f6a4f27707" x="150.595184" y="281.31782" style="fill: #4c72b0; fill-opacity: 0.5"/>
    </g>
    <g clip-path="url(#p9152dcffa7)">
     <use xlink:href="#C0_0_f6a4f27707" x="159.561503" y="257.887548" style="fill: #4c72b0; fill-opacity: 0.5"/>
    </g>
    <g clip-path="url(#p9152dcffa7)">
     <use xlink:href="#C0_0_f6a4f27707" x="149.854603" y="282.382463" style="fill: #4c72b0; fill-opacity: 0.5"/>
    </g>
    <g clip-path="url(#p9152dcffa7)">
     <use xlink:href="#C0_0_f6a4f27707" x="148.416073" y="225.417066" style="fill: #4c72b0; fill-opacity: 0.5"/>
    </g>
    <g clip-path="url(#p9152dcffa7)">
     <use xlink:href="#C0_0_f6a4f27707" x="141.99139" y="293.249138" style="fill: #4c72b0; fill-opacity: 0.5"/>
    </g>
    <g clip-path="url(#p9152dcffa7)">
     <use xlink:href="#C0_0_f6a4f27707" x="146.128739" y="288.584315" style="fill: #4c72b0; fill-opacity: 0.5"/>
    </g>
    <g clip-path="url(#p9152dcffa7)">
     <use xlink:href="#C0_0_f6a4f27707" x="229.78709" y="157.88991" style="fill: #4c72b0; fill-opacity: 0.5"/>
    </g>
   </g>
   <g id="patch_3">
    <path d="M 75.45 365.1 
L 75.45 77.51088 
" style="fill: none; stroke: #cccccc; stroke-width: 1.875; stroke-linejoin: miter; stroke-linecap: square"/>
   </g>
   <g id="patch_4">
    <path d="M 75.45 365.1 
L 355.92552 365.1 
" style="fill: none; stroke: #cccccc; stroke-width: 1.875; stroke-linejoin: miter; stroke-linecap: square"/>
   </g>
  </g>
  <g id="axes_2">
   <g id="patch_5">
    <path d="M 75.45 74.7456 
L 355.92552 74.7456 
L 355.92552 19.44 
L 75.45 19.44 
z
" style="fill: #ffffff"/>
   </g>
   <g id="matplotlib.axis_3">
    <g id="xtick_7">
     <g id="line2d_14">
      <path d="M 95.610996 74.7456 
L 95.610996 19.44 
" clip-path="url(#p79b23df79f)" style="fill: none; stroke: #cccccc; stroke-width: 1.5; stroke-linecap: round"/>
     </g>
    </g>
    <g id="xtick_8">
     <g id="line2d_15">
      <path d="M 139.118306 74.7456 
L 139.118306 19.44 
" clip-path="url(#p79b23df79f)" style="fill: none; stroke: #cccccc; stroke-width: 1.5; stroke-linecap: round"/>
     </g>
    </g>
    <g id="xtick_9">
     <g id="line2d_16">
      <path d="M 182.625616 74.7456 
L 182.625616 19.44 
" clip-path="url(#p79b23df79f)" style="fill: none; stroke: #cccccc; stroke-width: 1.5; stroke-linecap: round"/>
     </g>
    </g>
    <g id="xtick_10">
     <g id="line2d_17">
      <path d="M 226.132927 74.7456 
L 226.132927 19.44 
" clip-path="url(#p79b23df79f)" style="fill: none; stroke: #cccccc; stroke-width: 1.5; stroke-linecap: round"/>
     </g>
    </g>
    <g id="xtick_11">
     <g id="line2d_18">
      <path d="M 269.640237 74.7456 
L 269.640237 19.44 
" clip-path="url(#p79b23df79f)" style="fill: none; stroke: #cccccc; stroke-width: 1.5; stroke-linecap: round"/>
     </g>
    </g>
    <g id="xtick_12">
     <g id="line2d_19">
      <path d="M 313.147547 74.7456 
L 313.147547 19.44 
" clip-path="url(#p79b23df79f)" style="fill: none; stroke: #cccccc; stroke-width: 1.5; stroke-linecap: round"/>
     </g>
    </g>
    <g id="text_16">
     <!-- 1e9 -->
     <g style="fill: #262626" transform="translate(328.398879 89.555991) scale(0.165 -0.165)">
      <defs>
       <path id="ArialMT-39" d="M 350 1059 
L 891 1109 
Q 959 728 1153 556 
Q 1347 384 1650 384 
Q 1909 384 2104 503 
Q 2300 622 2425 820 
Q 2550 1019 2634 1356 
Q 2719 1694 2719 2044 
Q 2719 2081 2716 2156 
Q 2547 1888 2255 1720 
Q 1963 1553 1622 1553 
Q 1053 1553 659 1965 
Q 266 2378 266 3053 
Q 266 3750 677 4175 
Q 1088 4600 1706 4600 
Q 2153 4600 2523 4359 
Q 2894 4119 3086 3673 
Q 3278 3228 3278 2384 
Q 3278 1506 3087 986 
Q 2897 466 2520 194 
Q 2144 -78 1638 -78 
Q 1100 -78 759 220 
Q 419 519 350 1059 
z
M 2653 3081 
Q 2653 3566 2395 3850 
Q 2138 4134 1775 4134 
Q 1400 4134 1122 3828 
Q 844 3522 844 3034 
Q 844 2597 1108 2323 
Q 1372 2050 1759 2050 
Q 2150 2050 2401 2323 
Q 2653 2597 2653 3081 
z
" transform="scale(0.015625)"/>
      </defs>
      <use xlink:href="#ArialMT-31"/>
      <use xlink:href="#ArialMT-65" transform="translate(55.615234 0)"/>
      <use xlink:href="#ArialMT-39" transform="translate(111.230469 0)"/>
     </g>
    </g>
   </g>
   <g id="matplotlib.axis_4"/>
   <g id="FillBetweenPolyCollection_1">
    <defs>
     <path id="m9006451be6" d="M 88.198887 -357.459299 
L 88.198887 -357.2544 
L 89.480182 -357.2544 
L 90.761478 -357.2544 
L 92.042773 -357.2544 
L 93.324068 -357.2544 
L 94.605363 -357.2544 
L 95.886658 -357.2544 
L 97.167954 -357.2544 
L 98.449249 -357.2544 
L 99.730544 -357.2544 
L 101.011839 -357.2544 
L 102.293135 -357.2544 
L 103.57443 -357.2544 
L 104.855725 -357.2544 
L 106.13702 -357.2544 
L 107.418315 -357.2544 
L 108.699611 -357.2544 
L 109.980906 -357.2544 
L 111.262201 -357.2544 
L 112.543496 -357.2544 
L 113.824791 -357.2544 
L 115.106087 -357.2544 
L 116.387382 -357.2544 
L 117.668677 -357.2544 
L 118.949972 -357.2544 
L 120.231267 -357.2544 
L 121.512563 -357.2544 
L 122.793858 -357.2544 
L 124.075153 -357.2544 
L 125.356448 -357.2544 
L 126.637743 -357.2544 
L 127.919039 -357.2544 
L 129.200334 -357.2544 
L 130.481629 -357.2544 
L 131.762924 -357.2544 
L 133.044219 -357.2544 
L 134.325515 -357.2544 
L 135.60681 -357.2544 
L 136.888105 -357.2544 
L 138.1694 -357.2544 
L 139.450695 -357.2544 
L 140.731991 -357.2544 
L 142.013286 -357.2544 
L 143.294581 -357.2544 
L 144.575876 -357.2544 
L 145.857171 -357.2544 
L 147.138467 -357.2544 
L 148.419762 -357.2544 
L 149.701057 -357.2544 
L 150.982352 -357.2544 
L 152.263647 -357.2544 
L 153.544943 -357.2544 
L 154.826238 -357.2544 
L 156.107533 -357.2544 
L 157.388828 -357.2544 
L 158.670123 -357.2544 
L 159.951419 -357.2544 
L 161.232714 -357.2544 
L 162.514009 -357.2544 
L 163.795304 -357.2544 
L 165.076599 -357.2544 
L 166.357895 -357.2544 
L 167.63919 -357.2544 
L 168.920485 -357.2544 
L 170.20178 -357.2544 
L 171.483075 -357.2544 
L 172.764371 -357.2544 
L 174.045666 -357.2544 
L 175.326961 -357.2544 
L 176.608256 -357.2544 
L 177.889552 -357.2544 
L 179.170847 -357.2544 
L 180.452142 -357.2544 
L 181.733437 -357.2544 
L 183.014732 -357.2544 
L 184.296028 -357.2544 
L 185.577323 -357.2544 
L 186.858618 -357.2544 
L 188.139913 -357.2544 
L 189.421208 -357.2544 
L 190.702504 -357.2544 
L 191.983799 -357.2544 
L 193.265094 -357.2544 
L 194.546389 -357.2544 
L 195.827684 -357.2544 
L 197.10898 -357.2544 
L 198.390275 -357.2544 
L 199.67157 -357.2544 
L 200.952865 -357.2544 
L 202.23416 -357.2544 
L 203.515456 -357.2544 
L 204.796751 -357.2544 
L 206.078046 -357.2544 
L 207.359341 -357.2544 
L 208.640636 -357.2544 
L 209.921932 -357.2544 
L 211.203227 -357.2544 
L 212.484522 -357.2544 
L 213.765817 -357.2544 
L 215.047112 -357.2544 
L 216.328408 -357.2544 
L 217.609703 -357.2544 
L 218.890998 -357.2544 
L 220.172293 -357.2544 
L 221.453588 -357.2544 
L 222.734884 -357.2544 
L 224.016179 -357.2544 
L 225.297474 -357.2544 
L 226.578769 -357.2544 
L 227.860064 -357.2544 
L 229.14136 -357.2544 
L 230.422655 -357.2544 
L 231.70395 -357.2544 
L 232.985245 -357.2544 
L 234.26654 -357.2544 
L 235.547836 -357.2544 
L 236.829131 -357.2544 
L 238.110426 -357.2544 
L 239.391721 -357.2544 
L 240.673016 -357.2544 
L 241.954312 -357.2544 
L 243.235607 -357.2544 
L 244.516902 -357.2544 
L 245.798197 -357.2544 
L 247.079492 -357.2544 
L 248.360788 -357.2544 
L 249.642083 -357.2544 
L 250.923378 -357.2544 
L 252.204673 -357.2544 
L 253.485968 -357.2544 
L 254.767264 -357.2544 
L 256.048559 -357.2544 
L 257.329854 -357.2544 
L 258.611149 -357.2544 
L 259.892445 -357.2544 
L 261.17374 -357.2544 
L 262.455035 -357.2544 
L 263.73633 -357.2544 
L 265.017625 -357.2544 
L 266.298921 -357.2544 
L 267.580216 -357.2544 
L 268.861511 -357.2544 
L 270.142806 -357.2544 
L 271.424101 -357.2544 
L 272.705397 -357.2544 
L 273.986692 -357.2544 
L 275.267987 -357.2544 
L 276.549282 -357.2544 
L 277.830577 -357.2544 
L 279.111873 -357.2544 
L 280.393168 -357.2544 
L 281.674463 -357.2544 
L 282.955758 -357.2544 
L 284.237053 -357.2544 
L 285.518349 -357.2544 
L 286.799644 -357.2544 
L 288.080939 -357.2544 
L 289.362234 -357.2544 
L 290.643529 -357.2544 
L 291.924825 -357.2544 
L 293.20612 -357.2544 
L 294.487415 -357.2544 
L 295.76871 -357.2544 
L 297.050005 -357.2544 
L 298.331301 -357.2544 
L 299.612596 -357.2544 
L 300.893891 -357.2544 
L 302.175186 -357.2544 
L 303.456481 -357.2544 
L 304.737777 -357.2544 
L 306.019072 -357.2544 
L 307.300367 -357.2544 
L 308.581662 -357.2544 
L 309.862957 -357.2544 
L 311.144253 -357.2544 
L 312.425548 -357.2544 
L 313.706843 -357.2544 
L 314.988138 -357.2544 
L 316.269433 -357.2544 
L 317.550729 -357.2544 
L 318.832024 -357.2544 
L 320.113319 -357.2544 
L 321.394614 -357.2544 
L 322.675909 -357.2544 
L 323.957205 -357.2544 
L 325.2385 -357.2544 
L 326.519795 -357.2544 
L 327.80109 -357.2544 
L 329.082385 -357.2544 
L 330.363681 -357.2544 
L 331.644976 -357.2544 
L 332.926271 -357.2544 
L 334.207566 -357.2544 
L 335.488862 -357.2544 
L 336.770157 -357.2544 
L 338.051452 -357.2544 
L 339.332747 -357.2544 
L 340.614042 -357.2544 
L 341.895338 -357.2544 
L 343.176633 -357.2544 
L 343.176633 -357.278952 
L 343.176633 -357.278952 
L 341.895338 -357.285041 
L 340.614042 -357.292426 
L 339.332747 -357.301327 
L 338.051452 -357.31199 
L 336.770157 -357.324682 
L 335.488862 -357.339692 
L 334.207566 -357.357331 
L 332.926271 -357.377925 
L 331.644976 -357.401813 
L 330.363681 -357.42934 
L 329.082385 -357.46085 
L 327.80109 -357.496677 
L 326.519795 -357.537136 
L 325.2385 -357.582511 
L 323.957205 -357.633046 
L 322.675909 -357.688928 
L 321.394614 -357.750278 
L 320.113319 -357.817134 
L 318.832024 -357.889443 
L 317.550729 -357.967049 
L 316.269433 -358.04968 
L 314.988138 -358.136945 
L 313.706843 -358.228326 
L 312.425548 -358.323177 
L 311.144253 -358.420728 
L 309.862957 -358.520089 
L 308.581662 -358.620261 
L 307.300367 -358.720147 
L 306.019072 -358.818576 
L 304.737777 -358.914317 
L 303.456481 -359.00611 
L 302.175186 -359.092691 
L 300.893891 -359.17282 
L 299.612596 -359.245315 
L 298.331301 -359.309075 
L 297.050005 -359.363118 
L 295.76871 -359.406601 
L 294.487415 -359.438847 
L 293.20612 -359.459365 
L 291.924825 -359.467867 
L 290.643529 -359.464276 
L 289.362234 -359.448735 
L 288.080939 -359.421604 
L 286.799644 -359.383458 
L 285.518349 -359.335073 
L 284.237053 -359.277416 
L 282.955758 -359.211622 
L 281.674463 -359.138971 
L 280.393168 -359.060871 
L 279.111873 -358.978827 
L 277.830577 -358.894414 
L 276.549282 -358.809257 
L 275.267987 -358.725004 
L 273.986692 -358.643305 
L 272.705397 -358.56579 
L 271.424101 -358.494056 
L 270.142806 -358.429651 
L 268.861511 -358.374062 
L 267.580216 -358.328707 
L 266.298921 -358.29493 
L 265.017625 -358.273994 
L 263.73633 -358.267082 
L 262.455035 -358.275289 
L 261.17374 -358.299621 
L 259.892445 -358.340995 
L 258.611149 -358.40023 
L 257.329854 -358.478045 
L 256.048559 -358.575049 
L 254.767264 -358.691733 
L 253.485968 -358.828456 
L 252.204673 -358.985436 
L 250.923378 -359.162734 
L 249.642083 -359.360235 
L 248.360788 -359.577638 
L 247.079492 -359.814437 
L 245.798197 -360.069905 
L 244.516902 -360.343089 
L 243.235607 -360.632791 
L 241.954312 -360.93757 
L 240.673016 -361.255736 
L 239.391721 -361.585356 
L 238.110426 -361.924262 
L 236.829131 -362.270068 
L 235.547836 -362.620191 
L 234.26654 -362.971877 
L 232.985245 -363.32224 
L 231.70395 -363.668297 
L 230.422655 -364.007018 
L 229.14136 -364.335372 
L 227.860064 -364.650382 
L 226.578769 -364.949182 
L 225.297474 -365.229074 
L 224.016179 -365.487582 
L 222.734884 -365.722513 
L 221.453588 -365.932008 
L 220.172293 -366.114593 
L 218.890998 -366.269224 
L 217.609703 -366.395326 
L 216.328408 -366.49283 
L 215.047112 -366.562196 
L 213.765817 -366.604436 
L 212.484522 -366.621126 
L 211.203227 -366.614412 
L 209.921932 -366.587009 
L 208.640636 -366.542193 
L 207.359341 -366.483794 
L 206.078046 -366.416172 
L 204.796751 -366.344199 
L 203.515456 -366.27323 
L 202.23416 -366.209076 
L 200.952865 -366.157968 
L 199.67157 -366.126518 
L 198.390275 -366.121678 
L 197.10898 -366.15069 
L 195.827684 -366.221031 
L 194.546389 -366.340354 
L 193.265094 -366.516412 
L 191.983799 -366.75698 
L 190.702504 -367.069759 
L 189.421208 -367.462272 
L 188.139913 -367.941746 
L 186.858618 -368.514977 
L 185.577323 -369.188186 
L 184.296028 -369.966859 
L 183.014732 -370.855578 
L 181.733437 -371.857847 
L 180.452142 -372.975911 
L 179.170847 -374.210575 
L 177.889552 -375.561031 
L 176.608256 -377.024695 
L 175.326961 -378.597067 
L 174.045666 -380.271609 
L 172.764371 -382.039663 
L 171.483075 -383.890404 
L 170.20178 -385.810838 
L 168.920485 -387.785856 
L 167.63919 -389.798335 
L 166.357895 -391.829302 
L 165.076599 -393.858156 
L 163.795304 -395.862942 
L 162.514009 -397.820686 
L 161.232714 -399.707769 
L 159.951419 -401.500351 
L 158.670123 -403.174817 
L 157.388828 -404.708248 
L 156.107533 -406.078897 
L 154.826238 -407.266659 
L 153.544943 -408.253516 
L 152.263647 -409.023955 
L 150.982352 -409.56533 
L 149.701057 -409.868166 
L 148.419762 -409.9264 
L 147.138467 -409.737529 
L 145.857171 -409.302684 
L 144.575876 -408.626615 
L 143.294581 -407.717586 
L 142.013286 -406.587187 
L 140.731991 -405.250065 
L 139.450695 -403.723591 
L 138.1694 -402.027464 
L 136.888105 -400.183264 
L 135.60681 -398.213983 
L 134.325515 -396.143524 
L 133.044219 -393.996212 
L 131.762924 -391.796301 
L 130.481629 -389.56752 
L 129.200334 -387.332642 
L 127.919039 -385.113107 
L 126.637743 -382.928702 
L 125.356448 -380.797295 
L 124.075153 -378.73464 
L 122.793858 -376.754237 
L 121.512563 -374.867272 
L 120.231267 -373.082597 
L 118.949972 -371.406788 
L 117.668677 -369.844233 
L 116.387382 -368.397274 
L 115.106087 -367.066379 
L 113.824791 -365.850339 
L 112.543496 -364.746485 
L 111.262201 -363.75091 
L 109.980906 -362.858694 
L 108.699611 -362.064129 
L 107.418315 -361.360929 
L 106.13702 -360.742422 
L 104.855725 -360.201735 
L 103.57443 -359.731944 
L 102.293135 -359.326214 
L 101.011839 -358.97791 
L 99.730544 -358.680684 
L 98.449249 -358.428551 
L 97.167954 -358.215932 
L 95.886658 -358.037687 
L 94.605363 -357.889136 
L 93.324068 -357.766053 
L 92.042773 -357.664665 
L 90.761478 -357.581633 
L 89.480182 -357.514027 
L 88.198887 -357.459299 
z
" style="stroke: #4c72b0; stroke-width: 1.5"/>
    </defs>
    <g clip-path="url(#p79b23df79f)">
     <use xlink:href="#m9006451be6" x="0" y="432" style="fill: #4c72b0; fill-opacity: 0.25; stroke: #4c72b0; stroke-width: 1.5"/>
    </g>
   </g>
   <g id="patch_6">
    <path d="M 75.45 74.7456 
L 355.92552 74.7456 
" style="fill: none; stroke: #cccccc; stroke-width: 1.875; stroke-linejoin: miter; stroke-linecap: square"/>
   </g>
  </g>
  <g id="axes_3">
   <g id="patch_7">
    <path d="M 358.6224 365.1 
L 412.56 365.1 
L 412.56 77.51088 
L 358.6224 77.51088 
z
" style="fill: #ffffff"/>
   </g>
   <g id="matplotlib.axis_5"/>
   <g id="matplotlib.axis_6">
    <g id="ytick_8">
     <g id="line2d_20">
      <path d="M 358.6224 335.135692 
L 412.56 335.135692 
" clip-path="url(#pad5f967bbe)" style="fill: none; stroke: #cccccc; stroke-width: 1.5; stroke-linecap: round"/>
     </g>
    </g>
    <g id="ytick_9">
     <g id="line2d_21">
      <path d="M 358.6224 296.295861 
L 412.56 296.295861 
" clip-path="url(#pad5f967bbe)" style="fill: none; stroke: #cccccc; stroke-width: 1.5; stroke-linecap: round"/>
     </g>
    </g>
    <g id="ytick_10">
     <g id="line2d_22">
      <path d="M 358.6224 257.45603 
L 412.56 257.45603 
" clip-path="url(#pad5f967bbe)" style="fill: none; stroke: #cccccc; stroke-width: 1.5; stroke-linecap: round"/>
     </g>
    </g>
    <g id="ytick_11">
     <g id="line2d_23">
      <path d="M 358.6224 218.616199 
L 412.56 218.616199 
" clip-path="url(#pad5f967bbe)" style="fill: none; stroke: #cccccc; stroke-width: 1.5; stroke-linecap: round"/>
     </g>
    </g>
    <g id="ytick_12">
     <g id="line2d_24">
      <path d="M 358.6224 179.776368 
L 412.56 179.776368 
" clip-path="url(#pad5f967bbe)" style="fill: none; stroke: #cccccc; stroke-width: 1.5; stroke-linecap: round"/>
     </g>
    </g>
    <g id="ytick_13">
     <g id="line2d_25">
      <path d="M 358.6224 140.936537 
L 412.56 140.936537 
" clip-path="url(#pad5f967bbe)" style="fill: none; stroke: #cccccc; stroke-width: 1.5; stroke-linecap: round"/>
     </g>
    </g>
    <g id="ytick_14">
     <g id="line2d_26">
      <path d="M 358.6224 102.096706 
L 412.56 102.096706 
" clip-path="url(#pad5f967bbe)" style="fill: none; stroke: #cccccc; stroke-width: 1.5; stroke-linecap: round"/>
     </g>
    </g>
    <g id="text_17">
     <!-- 1e6 -->
     <g style="fill: #262626" transform="translate(358.6224 74.51088) scale(0.165 -0.165)">
      <defs>
       <path id="ArialMT-36" d="M 3184 3459 
L 2625 3416 
Q 2550 3747 2413 3897 
Q 2184 4138 1850 4138 
Q 1581 4138 1378 3988 
Q 1113 3794 959 3422 
Q 806 3050 800 2363 
Q 1003 2672 1297 2822 
Q 1591 2972 1913 2972 
Q 2475 2972 2870 2558 
Q 3266 2144 3266 1488 
Q 3266 1056 3080 686 
Q 2894 316 2569 119 
Q 2244 -78 1831 -78 
Q 1128 -78 684 439 
Q 241 956 241 2144 
Q 241 3472 731 4075 
Q 1159 4600 1884 4600 
Q 2425 4600 2770 4297 
Q 3116 3994 3184 3459 
z
M 888 1484 
Q 888 1194 1011 928 
Q 1134 663 1356 523 
Q 1578 384 1822 384 
Q 2178 384 2434 671 
Q 2691 959 2691 1453 
Q 2691 1928 2437 2201 
Q 2184 2475 1800 2475 
Q 1419 2475 1153 2201 
Q 888 1928 888 1484 
z
" transform="scale(0.015625)"/>
      </defs>
      <use xlink:href="#ArialMT-31"/>
      <use xlink:href="#ArialMT-65" transform="translate(55.615234 0)"/>
      <use xlink:href="#ArialMT-36" transform="translate(111.230469 0)"/>
     </g>
    </g>
   </g>
   <g id="FillBetweenPolyCollection_2">
    <defs>
     <path id="m11b86bd3b1" d="M 358.795201 -79.972233 
L 358.6224 -79.972233 
L 358.6224 -81.286025 
L 358.6224 -82.599817 
L 358.6224 -83.913609 
L 358.6224 -85.227402 
L 358.6224 -86.541194 
L 358.6224 -87.854986 
L 358.6224 -89.168778 
L 358.6224 -90.482571 
L 358.6224 -91.796363 
L 358.6224 -93.110155 
L 358.6224 -94.423947 
L 358.6224 -95.73774 
L 358.6224 -97.051532 
L 358.6224 -98.365324 
L 358.6224 -99.679116 
L 358.6224 -100.992908 
L 358.6224 -102.306701 
L 358.6224 -103.620493 
L 358.6224 -104.934285 
L 358.6224 -106.248077 
L 358.6224 -107.56187 
L 358.6224 -108.875662 
L 358.6224 -110.189454 
L 358.6224 -111.503246 
L 358.6224 -112.817039 
L 358.6224 -114.130831 
L 358.6224 -115.444623 
L 358.6224 -116.758415 
L 358.6224 -118.072208 
L 358.6224 -119.386 
L 358.6224 -120.699792 
L 358.6224 -122.013584 
L 358.6224 -123.327376 
L 358.6224 -124.641169 
L 358.6224 -125.954961 
L 358.6224 -127.268753 
L 358.6224 -128.582545 
L 358.6224 -129.896338 
L 358.6224 -131.21013 
L 358.6224 -132.523922 
L 358.6224 -133.837714 
L 358.6224 -135.151507 
L 358.6224 -136.465299 
L 358.6224 -137.779091 
L 358.6224 -139.092883 
L 358.6224 -140.406675 
L 358.6224 -141.720468 
L 358.6224 -143.03426 
L 358.6224 -144.348052 
L 358.6224 -145.661844 
L 358.6224 -146.975637 
L 358.6224 -148.289429 
L 358.6224 -149.603221 
L 358.6224 -150.917013 
L 358.6224 -152.230806 
L 358.6224 -153.544598 
L 358.6224 -154.85839 
L 358.6224 -156.172182 
L 358.6224 -157.485975 
L 358.6224 -158.799767 
L 358.6224 -160.113559 
L 358.6224 -161.427351 
L 358.6224 -162.741143 
L 358.6224 -164.054936 
L 358.6224 -165.368728 
L 358.6224 -166.68252 
L 358.6224 -167.996312 
L 358.6224 -169.310105 
L 358.6224 -170.623897 
L 358.6224 -171.937689 
L 358.6224 -173.251481 
L 358.6224 -174.565274 
L 358.6224 -175.879066 
L 358.6224 -177.192858 
L 358.6224 -178.50665 
L 358.6224 -179.820443 
L 358.6224 -181.134235 
L 358.6224 -182.448027 
L 358.6224 -183.761819 
L 358.6224 -185.075611 
L 358.6224 -186.389404 
L 358.6224 -187.703196 
L 358.6224 -189.016988 
L 358.6224 -190.33078 
L 358.6224 -191.644573 
L 358.6224 -192.958365 
L 358.6224 -194.272157 
L 358.6224 -195.585949 
L 358.6224 -196.899742 
L 358.6224 -198.213534 
L 358.6224 -199.527326 
L 358.6224 -200.841118 
L 358.6224 -202.15491 
L 358.6224 -203.468703 
L 358.6224 -204.782495 
L 358.6224 -206.096287 
L 358.6224 -207.410079 
L 358.6224 -208.723872 
L 358.6224 -210.037664 
L 358.6224 -211.351456 
L 358.6224 -212.665248 
L 358.6224 -213.979041 
L 358.6224 -215.292833 
L 358.6224 -216.606625 
L 358.6224 -217.920417 
L 358.6224 -219.23421 
L 358.6224 -220.548002 
L 358.6224 -221.861794 
L 358.6224 -223.175586 
L 358.6224 -224.489378 
L 358.6224 -225.803171 
L 358.6224 -227.116963 
L 358.6224 -228.430755 
L 358.6224 -229.744547 
L 358.6224 -231.05834 
L 358.6224 -232.372132 
L 358.6224 -233.685924 
L 358.6224 -234.999716 
L 358.6224 -236.313509 
L 358.6224 -237.627301 
L 358.6224 -238.941093 
L 358.6224 -240.254885 
L 358.6224 -241.568677 
L 358.6224 -242.88247 
L 358.6224 -244.196262 
L 358.6224 -245.510054 
L 358.6224 -246.823846 
L 358.6224 -248.137639 
L 358.6224 -249.451431 
L 358.6224 -250.765223 
L 358.6224 -252.079015 
L 358.6224 -253.392808 
L 358.6224 -254.7066 
L 358.6224 -256.020392 
L 358.6224 -257.334184 
L 358.6224 -258.647977 
L 358.6224 -259.961769 
L 358.6224 -261.275561 
L 358.6224 -262.589353 
L 358.6224 -263.903145 
L 358.6224 -265.216938 
L 358.6224 -266.53073 
L 358.6224 -267.844522 
L 358.6224 -269.158314 
L 358.6224 -270.472107 
L 358.6224 -271.785899 
L 358.6224 -273.099691 
L 358.6224 -274.413483 
L 358.6224 -275.727276 
L 358.6224 -277.041068 
L 358.6224 -278.35486 
L 358.6224 -279.668652 
L 358.6224 -280.982445 
L 358.6224 -282.296237 
L 358.6224 -283.610029 
L 358.6224 -284.923821 
L 358.6224 -286.237613 
L 358.6224 -287.551406 
L 358.6224 -288.865198 
L 358.6224 -290.17899 
L 358.6224 -291.492782 
L 358.6224 -292.806575 
L 358.6224 -294.120367 
L 358.6224 -295.434159 
L 358.6224 -296.747951 
L 358.6224 -298.061744 
L 358.6224 -299.375536 
L 358.6224 -300.689328 
L 358.6224 -302.00312 
L 358.6224 -303.316912 
L 358.6224 -304.630705 
L 358.6224 -305.944497 
L 358.6224 -307.258289 
L 358.6224 -308.572081 
L 358.6224 -309.885874 
L 358.6224 -311.199666 
L 358.6224 -312.513458 
L 358.6224 -313.82725 
L 358.6224 -315.141043 
L 358.6224 -316.454835 
L 358.6224 -317.768627 
L 358.6224 -319.082419 
L 358.6224 -320.396212 
L 358.6224 -321.710004 
L 358.6224 -323.023796 
L 358.6224 -324.337588 
L 358.6224 -325.65138 
L 358.6224 -326.965173 
L 358.6224 -328.278965 
L 358.6224 -329.592757 
L 358.6224 -330.906549 
L 358.6224 -332.220342 
L 358.6224 -333.534134 
L 358.6224 -334.847926 
L 358.6224 -336.161718 
L 358.6224 -337.475511 
L 358.6224 -338.789303 
L 358.6224 -340.103095 
L 358.6224 -341.416887 
L 358.651933 -341.416887 
L 358.651933 -341.416887 
L 358.659002 -340.103095 
L 358.667545 -338.789303 
L 358.677817 -337.475511 
L 358.690102 -336.161718 
L 358.704716 -334.847926 
L 358.722009 -333.534134 
L 358.742362 -332.220342 
L 358.76619 -330.906549 
L 358.793935 -329.592757 
L 358.826067 -328.278965 
L 358.863077 -326.965173 
L 358.905474 -325.65138 
L 358.953774 -324.337588 
L 359.008494 -323.023796 
L 359.070143 -321.710004 
L 359.139207 -320.396212 
L 359.21614 -319.082419 
L 359.301345 -317.768627 
L 359.395165 -316.454835 
L 359.497865 -315.141043 
L 359.609615 -313.82725 
L 359.730476 -312.513458 
L 359.860388 -311.199666 
L 359.99915 -309.885874 
L 360.146415 -308.572081 
L 360.301676 -307.258289 
L 360.464262 -305.944497 
L 360.633332 -304.630705 
L 360.807876 -303.316912 
L 360.986721 -302.00312 
L 361.168535 -300.689328 
L 361.351844 -299.375536 
L 361.535045 -298.061744 
L 361.716429 -296.747951 
L 361.894206 -295.434159 
L 362.066533 -294.120367 
L 362.231545 -292.806575 
L 362.387391 -291.492782 
L 362.532262 -290.17899 
L 362.664437 -288.865198 
L 362.782308 -287.551406 
L 362.884424 -286.237613 
L 362.969513 -284.923821 
L 363.03652 -283.610029 
L 363.084625 -282.296237 
L 363.113268 -280.982445 
L 363.122163 -279.668652 
L 363.111309 -278.35486 
L 363.080993 -277.041068 
L 363.031789 -275.727276 
L 362.96455 -274.413483 
L 362.880399 -273.099691 
L 362.780707 -271.785899 
L 362.667071 -270.472107 
L 362.541292 -269.158314 
L 362.405342 -267.844522 
L 362.261334 -266.53073 
L 362.111493 -265.216938 
L 361.958114 -263.903145 
L 361.80354 -262.589353 
L 361.650121 -261.275561 
L 361.50019 -259.961769 
L 361.356032 -258.647977 
L 361.219857 -257.334184 
L 361.093783 -256.020392 
L 360.979811 -254.7066 
L 360.879812 -253.392808 
L 360.795516 -252.079015 
L 360.728496 -250.765223 
L 360.680169 -249.451431 
L 360.651789 -248.137639 
L 360.644446 -246.823846 
L 360.659065 -245.510054 
L 360.696415 -244.196262 
L 360.757108 -242.88247 
L 360.841609 -241.568677 
L 360.950239 -240.254885 
L 361.083189 -238.941093 
L 361.240524 -237.627301 
L 361.422192 -236.313509 
L 361.628036 -234.999716 
L 361.857799 -233.685924 
L 362.111136 -232.372132 
L 362.387617 -231.05834 
L 362.686739 -229.744547 
L 363.007924 -228.430755 
L 363.350532 -227.116963 
L 363.713856 -225.803171 
L 364.097127 -224.489378 
L 364.499511 -223.175586 
L 364.920113 -221.861794 
L 365.357966 -220.548002 
L 365.812038 -219.23421 
L 366.28122 -217.920417 
L 366.76433 -216.606625 
L 367.260109 -215.292833 
L 367.767228 -213.979041 
L 368.284287 -212.665248 
L 368.809834 -211.351456 
L 369.342376 -210.037664 
L 369.880403 -208.723872 
L 370.42242 -207.410079 
L 370.966983 -206.096287 
L 371.512745 -204.782495 
L 372.058508 -203.468703 
L 372.603284 -202.15491 
L 373.146353 -200.841118 
L 373.687335 -199.527326 
L 374.226252 -198.213534 
L 374.763594 -196.899742 
L 375.300376 -195.585949 
L 375.838189 -194.272157 
L 376.379234 -192.958365 
L 376.92634 -191.644573 
L 377.482965 -190.33078 
L 378.053174 -189.016988 
L 378.641584 -187.703196 
L 379.25329 -186.389404 
L 379.893763 -185.075611 
L 380.568711 -183.761819 
L 381.283922 -182.448027 
L 382.045081 -181.134235 
L 382.857564 -179.820443 
L 383.72622 -178.50665 
L 384.655143 -177.192858 
L 385.647438 -175.879066 
L 386.705 -174.565274 
L 387.8283 -173.251481 
L 389.016195 -171.937689 
L 390.26577 -170.623897 
L 391.572218 -169.310105 
L 392.928761 -167.996312 
L 394.326626 -166.68252 
L 395.755074 -165.368728 
L 397.201488 -164.054936 
L 398.651523 -162.741143 
L 400.0893 -161.427351 
L 401.497677 -160.113559 
L 402.858545 -158.799767 
L 404.153184 -157.485975 
L 405.362643 -156.172182 
L 406.468142 -154.85839 
L 407.451494 -153.544598 
L 408.295516 -152.230806 
L 408.984432 -150.917013 
L 409.50425 -149.603221 
L 409.843104 -148.289429 
L 409.991543 -146.975637 
L 409.942771 -145.661844 
L 409.692818 -144.348052 
L 409.240643 -143.03426 
L 408.58817 -141.720468 
L 407.740247 -140.406675 
L 406.704535 -139.092883 
L 405.491335 -137.779091 
L 404.11335 -136.465299 
L 402.585399 -135.151507 
L 400.924088 -133.837714 
L 399.147443 -132.523922 
L 397.274531 -131.21013 
L 395.325064 -129.896338 
L 393.31901 -128.582545 
L 391.276212 -127.268753 
L 389.21603 -125.954961 
L 387.157014 -124.641169 
L 385.11662 -123.327376 
L 383.110955 -122.013584 
L 381.154586 -120.699792 
L 379.260385 -119.386 
L 377.439428 -118.072208 
L 375.700944 -116.758415 
L 374.052306 -115.444623 
L 372.499066 -114.130831 
L 371.045025 -112.817039 
L 369.692336 -111.503246 
L 368.441634 -110.189454 
L 367.292184 -108.875662 
L 366.242043 -107.56187 
L 365.28823 -106.248077 
L 364.4269 -104.934285 
L 363.653512 -103.620493 
L 362.962999 -102.306701 
L 362.349916 -100.992908 
L 361.80859 -99.679116 
L 361.333239 -98.365324 
L 360.918093 -97.051532 
L 360.557485 -95.73774 
L 360.245929 -94.423947 
L 359.978189 -93.110155 
L 359.749323 -91.796363 
L 359.554719 -90.482571 
L 359.390116 -89.168778 
L 359.251618 -87.854986 
L 359.135691 -86.541194 
L 359.039161 -85.227402 
L 358.959198 -83.913609 
L 358.893299 -82.599817 
L 358.839271 -81.286025 
L 358.795201 -79.972233 
z
" style="stroke: #4c72b0; stroke-width: 1.5"/>
    </defs>
    <g clip-path="url(#pad5f967bbe)">
     <use xlink:href="#m11b86bd3b1" x="0" y="432" style="fill: #4c72b0; fill-opacity: 0.25; stroke: #4c72b0; stroke-width: 1.5"/>
    </g>
   </g>
   <g id="patch_8">
    <path d="M 358.6224 365.1 
L 358.6224 77.51088 
" style="fill: none; stroke: #cccccc; stroke-width: 1.875; stroke-linejoin: miter; stroke-linecap: square"/>
   </g>
  </g>
  <g id="text_18">
   <g id="patch_9">
    <path d="M 141.324375 108.590625 
L 302.4 108.590625 
Q 306 108.590625 306 104.990625 
L 306 93.729375 
Q 306 90.129375 302.4 90.129375 
L 141.324375 90.129375 
Q 137.724375 90.129375 137.724375 93.729375 
L 137.724375 104.990625 
Q 137.724375 108.590625 141.324375 108.590625 
z
" style="fill: #ffffff; opacity: 0.9; stroke: #d9d9d9; stroke-width: 1.5; stroke-linejoin: miter"/>
   </g>
   <!-- Correlazione (Pearson) = 0.65 -->
   <g style="fill: #262626" transform="translate(141.324375 102.465) scale(0.12 -0.12)">
    <defs>
     <path id="ArialMT-43" d="M 3763 1606 
L 4369 1453 
Q 4178 706 3683 314 
Q 3188 -78 2472 -78 
Q 1731 -78 1267 223 
Q 803 525 561 1097 
Q 319 1669 319 2325 
Q 319 3041 592 3573 
Q 866 4106 1370 4382 
Q 1875 4659 2481 4659 
Q 3169 4659 3637 4309 
Q 4106 3959 4291 3325 
L 3694 3184 
Q 3534 3684 3231 3912 
Q 2928 4141 2469 4141 
Q 1941 4141 1586 3887 
Q 1231 3634 1087 3207 
Q 944 2781 944 2328 
Q 944 1744 1114 1308 
Q 1284 872 1643 656 
Q 2003 441 2422 441 
Q 2931 441 3284 734 
Q 3638 1028 3763 1606 
z
" transform="scale(0.015625)"/>
     <path id="ArialMT-28" d="M 1497 -1347 
Q 1031 -759 709 28 
Q 388 816 388 1659 
Q 388 2403 628 3084 
Q 909 3875 1497 4659 
L 1900 4659 
Q 1522 4009 1400 3731 
Q 1209 3300 1100 2831 
Q 966 2247 966 1656 
Q 966 153 1900 -1347 
L 1497 -1347 
z
" transform="scale(0.015625)"/>
     <path id="ArialMT-50" d="M 494 0 
L 494 4581 
L 2222 4581 
Q 2678 4581 2919 4538 
Q 3256 4481 3484 4323 
Q 3713 4166 3852 3881 
Q 3991 3597 3991 3256 
Q 3991 2672 3619 2267 
Q 3247 1863 2275 1863 
L 1100 1863 
L 1100 0 
L 494 0 
z
M 1100 2403 
L 2284 2403 
Q 2872 2403 3119 2622 
Q 3366 2841 3366 3238 
Q 3366 3525 3220 3729 
Q 3075 3934 2838 4000 
Q 2684 4041 2272 4041 
L 1100 4041 
L 1100 2403 
z
" transform="scale(0.015625)"/>
     <path id="ArialMT-29" d="M 791 -1347 
L 388 -1347 
Q 1322 153 1322 1656 
Q 1322 2244 1188 2822 
Q 1081 3291 891 3722 
Q 769 4003 388 4659 
L 791 4659 
Q 1378 3875 1659 3084 
Q 1900 2403 1900 1659 
Q 1900 816 1576 28 
Q 1253 -759 791 -1347 
z
" transform="scale(0.015625)"/>
     <path id="ArialMT-3d" d="M 3381 2694 
L 356 2694 
L 356 3219 
L 3381 3219 
L 3381 2694 
z
M 3381 1303 
L 356 1303 
L 356 1828 
L 3381 1828 
L 3381 1303 
z
" transform="scale(0.015625)"/>
    </defs>
    <use xlink:href="#ArialMT-43"/>
    <use xlink:href="#ArialMT-6f" transform="translate(72.216797 0)"/>
    <use xlink:href="#ArialMT-72" transform="translate(127.832031 0)"/>
    <use xlink:href="#ArialMT-72" transform="translate(161.132812 0)"/>
    <use xlink:href="#ArialMT-65" transform="translate(194.433594 0)"/>
    <use xlink:href="#ArialMT-6c" transform="translate(250.048828 0)"/>
    <use xlink:href="#ArialMT-61" transform="translate(272.265625 0)"/>
    <use xlink:href="#ArialMT-7a" transform="translate(327.880859 0)"/>
    <use xlink:href="#ArialMT-69" transform="translate(377.880859 0)"/>
    <use xlink:href="#ArialMT-6f" transform="translate(400.097656 0)"/>
    <use xlink:href="#ArialMT-6e" transform="translate(455.712891 0)"/>
    <use xlink:href="#ArialMT-65" transform="translate(511.328125 0)"/>
    <use xlink:href="#ArialMT-20" transform="translate(566.943359 0)"/>
    <use xlink:href="#ArialMT-28" transform="translate(594.726562 0)"/>
    <use xlink:href="#ArialMT-50" transform="translate(628.027344 0)"/>
    <use xlink:href="#ArialMT-65" transform="translate(694.726562 0)"/>
    <use xlink:href="#ArialMT-61" transform="translate(750.341797 0)"/>
    <use xlink:href="#ArialMT-72" transform="translate(805.957031 0)"/>
    <use xlink:href="#ArialMT-73" transform="translate(839.257812 0)"/>
    <use xlink:href="#ArialMT-6f" transform="translate(889.257812 0)"/>
    <use xlink:href="#ArialMT-6e" transform="translate(944.873047 0)"/>
    <use xlink:href="#ArialMT-29" transform="translate(1000.488281 0)"/>
    <use xlink:href="#ArialMT-20" transform="translate(1033.789062 0)"/>
    <use xlink:href="#ArialMT-3d" transform="translate(1061.572266 0)"/>
    <use xlink:href="#ArialMT-20" transform="translate(1119.970703 0)"/>
    <use xlink:href="#ArialMT-30" transform="translate(1147.753906 0)"/>
    <use xlink:href="#ArialMT-2e" transform="translate(1203.369141 0)"/>
    <use xlink:href="#ArialMT-36" transform="translate(1231.152344 0)"/>
    <use xlink:href="#ArialMT-35" transform="translate(1286.767578 0)"/>
   </g>
  </g>
 </g>
 <defs>
  <clipPath id="p9152dcffa7">
   <rect x="75.45" y="77.51088" width="280.47552" height="287.58912"/>
  </clipPath>
  <clipPath id="p79b23df79f">
   <rect x="75.45" y="19.44" width="280.47552" height="55.3056"/>
  </clipPath>
  <clipPath id="pad5f967bbe">
   <rect x="358.6224" y="77.51088" width="53.9376" height="287.58912"/>
  </clipPath>
 </defs>
</svg>
